<?xml version="1.0" standalone="no"?>
<!DOCTYPE svg PUBLIC "-//W3C//DTD SVG 20010904//EN"
 "http://www.w3.org/TR/2001/REC-SVG-20010904/DTD/svg10.dtd">
<svg version="1.0" xmlns="http://www.w3.org/2000/svg"
 width="1600.000000pt" height="900.000000pt" viewBox="0 0 1600.000000 900.000000"
 preserveAspectRatio="xMidYMid meet">

<g transform="translate(0.000000,900.000000) scale(0.100000,-0.100000)"
fill="#000000" stroke="none">
<path d="M0 5320 l0 -3680 38 -1 c20 -1 42 0 47 1 6 2 20 2 32 2 12 -1 25 3
28 8 3 6 40 10 81 10 42 0 85 5 97 12 23 13 32 14 171 22 100 6 146 14 146 25
0 4 24 8 53 8 74 1 187 14 187 22 0 3 15 6 33 7 146 5 207 10 207 18 0 5 13 6
29 3 17 -4 36 0 50 9 23 16 29 6 8 -15 -10 -10 -9 -11 4 -6 20 7 32 55 18 69
-5 6 -9 15 -9 20 0 6 19 -19 43 -55 126 -192 296 -356 455 -439 23 -12 45 -27
49 -33 3 -5 2 -7 -4 -4 -13 8 -253 -27 -320 -48 -73 -22 -95 -42 -87 -81 11
-58 65 -75 319 -105 138 -16 276 -22 735 -29 580 -9 1005 -21 1495 -41 483
-21 1429 2 2110 51 268 19 762 42 1155 54 102 4 327 11 500 16 609 19 666 20
795 25 72 3 227 7 345 10 118 3 274 7 345 10 72 3 238 7 370 10 132 3 305 7
385 10 80 3 240 7 355 10 218 5 413 11 670 20 83 3 330 10 550 16 738 18 1928
54 2270 69 405 18 587 32 650 50 17 5 46 11 65 14 19 3 50 13 68 22 l33 16
-32 24 c-18 13 -39 24 -46 24 -8 0 -16 7 -20 16 -4 10 -8 12 -12 5 -5 -7 -19
-5 -45 8 -24 13 -36 15 -33 7 3 -7 -1 -13 -9 -13 -8 0 -14 1 -14 3 0 1 18 24
40 50 22 27 40 53 40 59 0 6 9 16 19 22 11 7 25 29 32 50 6 21 15 40 19 43 4
3 17 24 29 48 12 23 24 42 27 42 3 0 1 -7 -4 -16 -20 -36 -3 -54 52 -55 63 -2
110 -4 156 -8 29 -2 32 -4 15 -11 -16 -7 -14 -9 15 -10 112 -3 153 -8 160 -20
5 -9 9 -9 15 -1 5 9 10 9 21 0 8 -6 51 -13 97 -16 153 -7 243 -23 260 -47 6
-7 7 -4 3 7 -6 20 5 22 22 5 12 -12 29 -16 100 -21 23 -2 42 1 42 6 0 5 6 7
13 4 6 -2 11 -10 10 -16 -3 -11 7 -14 42 -12 11 1 39 -5 62 -13 28 -10 45 -11
49 -5 4 6 13 4 24 -6 15 -14 18 -14 30 0 11 14 14 14 24 0 12 -16 107 -34 184
-35 l42 0 0 3730 0 3730 -8000 0 -8000 0 0 -3680z m7510 2612 c0 -15 6 -18 30
-14 23 3 30 0 30 -12 0 -9 5 -16 10 -16 6 0 10 6 9 13 -3 27 2 52 9 42 4 -5
23 -10 42 -10 19 0 38 -4 42 -9 3 -5 20 -3 39 4 25 11 34 11 37 2 2 -7 8 -12
14 -12 6 0 8 7 4 15 -3 9 0 15 8 15 8 0 16 -6 19 -12 3 -9 8 -10 16 -3 12 12
81 8 81 -4 0 -4 7 -16 15 -27 13 -18 14 -18 8 5 -7 28 9 41 52 41 22 0 26 -3
15 -10 -24 -15 -7 -20 35 -10 21 5 43 6 48 3 5 -3 13 0 17 7 6 9 12 9 30 -2
19 -11 23 -11 28 1 3 9 7 10 11 2 6 -9 32 -12 86 -10 11 1 34 -3 52 -9 26 -8
31 -8 26 4 -3 8 0 14 6 14 6 0 11 -5 11 -10 0 -7 6 -7 19 -1 14 8 22 7 31 -4
8 -10 17 -12 24 -6 12 10 66 8 84 -3 6 -4 37 -6 69 -5 94 3 201 -7 218 -21 12
-10 15 -10 15 0 0 9 10 11 38 5 33 -6 163 -16 247 -19 17 0 33 -5 36 -9 4 -5
39 -10 80 -12 42 -2 75 -8 77 -14 2 -6 14 -8 28 -5 13 4 49 3 79 -1 42 -5 55
-10 55 -23 1 -15 2 -15 14 1 12 16 20 17 51 8 20 -5 43 -7 51 -4 8 3 14 0 14
-6 0 -18 20 -12 21 7 1 15 2 15 6 -1 4 -14 12 -18 29 -14 13 2 21 0 18 -4 -3
-5 4 -9 15 -9 12 0 21 -5 21 -11 0 -6 8 -8 18 -5 17 6 88 -4 172 -25 25 -6 62
-10 83 -10 24 1 36 -2 32 -9 -7 -11 -4 -12 35 -16 14 -1 40 -5 59 -8 23 -5 37
-3 43 6 5 9 10 10 16 2 10 -15 69 -34 108 -34 18 0 36 -4 39 -10 3 -5 15 -10
27 -10 13 0 18 -5 15 -14 -3 -8 1 -20 9 -26 13 -11 18 -7 16 12 -1 3 5 9 13
12 8 3 15 1 15 -5 0 -5 11 -14 25 -19 14 -5 25 -14 25 -20 0 -5 7 -10 17 -10
14 0 14 2 -2 20 -10 11 -15 23 -12 27 4 3 7 1 7 -5 0 -7 9 -12 19 -12 12 0 21
-8 24 -22 4 -23 4 -23 14 2 l11 25 11 -28 c6 -17 16 -25 22 -21 6 3 15 1 19
-6 6 -9 12 -9 29 2 18 11 23 11 31 -2 9 -13 11 -13 20 0 8 13 11 11 16 -7 5
-18 11 -21 35 -16 23 4 29 2 29 -11 0 -13 7 -15 40 -10 25 4 40 3 40 -4 0 -16
29 -24 100 -29 59 -4 79 -14 80 -35 0 -5 -4 -8 -10 -8 -5 0 -10 7 -10 15 0 9
-6 12 -15 9 -21 -8 -19 -19 8 -32 32 -15 87 -26 67 -12 -12 7 -7 10 19 10 28
0 33 -3 28 -20 -3 -13 0 -20 9 -20 8 0 14 7 14 16 0 14 3 14 15 4 11 -9 13
-16 6 -23 -7 -7 -2 -15 16 -24 32 -17 43 -8 17 13 -18 15 -18 15 6 10 14 -3
31 -6 38 -6 7 0 12 -6 11 -12 -3 -29 2 -38 25 -38 13 0 30 10 39 23 16 22 16
22 16 1 1 -17 11 -23 56 -33 30 -7 55 -17 55 -22 0 -5 16 -9 36 -9 27 0 37 -5
41 -19 3 -12 11 -17 22 -14 20 5 94 -31 84 -41 -3 -3 0 -6 8 -7 52 -3 67 -6
80 -17 7 -7 23 -19 34 -27 18 -14 16 -14 -30 -10 -46 4 -47 3 -20 -7 17 -6 33
-15 36 -21 4 -5 14 -5 27 2 17 9 24 7 40 -14 24 -30 37 -33 20 -5 -7 10 -10
21 -7 24 9 9 59 -18 59 -31 0 -7 6 -13 13 -14 6 -1 23 -2 37 -2 23 -2 25 -5
22 -45 -1 -27 2 -41 8 -37 5 3 10 13 10 21 0 8 3 13 8 11 4 -1 7 2 7 8 0 5 -3
9 -7 8 -5 -2 -8 2 -8 7 0 6 11 10 25 10 21 0 25 -5 25 -30 0 -23 6 -33 23 -39
12 -5 26 -5 32 0 17 17 35 9 35 -16 0 -28 20 -35 21 -7 0 9 3 12 5 6 3 -6 16
-9 29 -6 15 2 25 0 25 -7 0 -6 -11 -11 -25 -11 -20 0 -25 -5 -25 -25 0 -14 4
-25 10 -25 5 0 9 6 7 13 -1 7 11 13 31 15 24 2 32 -1 32 -12 0 -9 -8 -16 -17
-16 -15 0 -16 -2 -3 -10 10 -6 16 -6 18 0 6 16 27 11 42 -10 8 -11 24 -20 36
-20 11 0 29 -9 39 -20 10 -11 24 -20 32 -20 7 0 13 -5 13 -11 0 -8 5 -8 15 1
13 10 15 9 15 -9 0 -14 6 -21 20 -21 11 0 20 -7 20 -15 0 -9 6 -12 15 -9 8 4
15 1 15 -5 0 -6 21 -21 46 -32 41 -20 68 -53 58 -70 -7 -12 29 -20 36 -9 5 8
9 6 14 -5 5 -13 9 -15 20 -6 11 9 15 6 21 -16 4 -16 10 -22 12 -15 4 9 18 0
43 -27 21 -23 45 -41 54 -41 8 0 18 -4 21 -10 4 -6 -6 -10 -22 -10 -19 0 -24
-3 -15 -9 7 -4 23 -6 35 -4 14 3 30 -3 41 -16 18 -20 18 -21 1 -21 -17 0 -17
-1 0 -20 11 -13 31 -20 52 -20 22 0 32 -4 28 -11 -4 -6 -13 -8 -21 -5 -7 3
-16 1 -19 -4 -3 -5 7 -10 22 -12 20 -2 29 -9 31 -25 2 -13 13 -24 28 -27 13
-4 33 -20 43 -37 18 -29 19 -30 26 -10 9 29 28 15 22 -16 -3 -18 3 -30 29 -50
32 -24 45 -53 24 -53 -5 0 -10 -5 -10 -10 0 -6 15 -4 36 5 43 18 67 6 58 -29
-3 -12 -1 -33 5 -46 7 -18 10 -20 10 -7 1 10 9 17 20 17 17 0 18 -4 11 -30 -5
-16 -11 -33 -14 -39 -7 -11 22 -36 31 -27 4 4 1 11 -6 15 -9 6 -10 11 -2 15 6
4 11 2 11 -3 0 -6 5 -11 10 -11 14 0 13 33 -2 48 -9 9 -7 12 9 12 18 0 22 -6
21 -32 0 -18 -5 -39 -10 -45 -16 -20 -2 -41 29 -45 38 -4 54 -48 28 -74 -21
-21 -3 -33 20 -14 12 10 18 10 30 0 9 -7 14 -19 11 -26 -2 -6 4 -14 15 -17 22
-6 26 -46 7 -66 -11 -11 -8 -12 15 -7 33 8 67 -18 49 -36 -8 -8 -4 -16 14 -30
28 -23 30 -36 7 -53 -14 -10 -10 -13 25 -19 28 -4 42 -11 42 -21 0 -8 7 -15
15 -15 9 0 15 -9 15 -21 0 -31 22 -99 32 -99 4 0 7 -3 6 -7 -4 -14 13 -53 23
-53 5 0 9 -9 9 -21 0 -16 -4 -19 -20 -14 -27 9 -25 -3 5 -27 14 -11 25 -28 25
-38 0 -10 5 -22 11 -26 6 -3 9 -17 6 -30 -3 -17 0 -24 12 -24 14 0 14 -2 1
-10 -13 -9 -13 -12 1 -23 8 -6 18 -20 22 -29 5 -14 1 -18 -17 -18 -19 0 -23
-4 -19 -20 3 -11 10 -20 15 -20 5 0 7 4 3 9 -3 5 -2 12 3 15 5 3 15 -11 24
-30 9 -18 12 -34 7 -34 -14 0 -10 -34 6 -56 21 -28 18 -35 -10 -28 -33 8 -32
-6 5 -44 31 -33 44 -76 16 -53 -11 10 -15 4 -18 -29 -2 -23 0 -44 5 -47 4 -3
0 -11 -10 -19 -10 -7 -13 -14 -6 -14 7 0 11 -14 11 -31 -1 -20 6 -37 17 -45
16 -12 16 -14 3 -14 -9 0 -19 -7 -22 -16 -10 -27 -7 -79 6 -92 10 -10 10 -15
-2 -22 -9 -6 -19 -5 -24 0 -15 15 -26 12 -20 -5 4 -8 15 -15 25 -15 21 0 26
-16 7 -22 -13 -5 -2 -28 13 -28 6 0 8 4 5 8 -7 11 40 9 51 -2 5 -5 3 -6 -4 -2
-7 4 -21 2 -30 -3 -17 -10 -16 -10 2 -11 17 0 17 -2 5 -10 -13 -9 -13 -10 0
-11 8 -1 19 -1 23 0 5 1 6 -3 2 -9 -3 -6 4 -14 17 -19 13 -6 17 -10 8 -10 -9
-1 -31 12 -50 29 -19 16 -39 29 -43 30 -5 0 -23 11 -40 24 -45 34 -211 118
-282 144 -202 72 -573 158 -845 196 -37 5 -48 12 -57 34 -13 28 -41 267 -68
577 -26 289 -46 360 -131 454 -123 137 -473 272 -879 340 -154 26 -335 44
-770 77 -405 30 -666 34 -1080 16 -159 -6 -422 -17 -584 -23 -385 -14 -498
-27 -851 -98 -537 -109 -622 -147 -783 -346 -58 -70 -90 -130 -90 -165 1 -14
-54 -140 -121 -280 l-122 -255 -37 -6 c-65 -10 -53 -19 29 -20 43 0 99 -4 124
-9 42 -9 41 -9 -15 -5 -33 3 -305 9 -605 15 -300 5 -691 14 -870 20 -179 5
-404 12 -500 15 -96 3 -292 10 -435 15 -143 5 -343 12 -445 15 -296 9 -420 17
-414 26 7 12 -8 11 -61 -2 -57 -14 -113 -5 -111 19 1 15 -10 17 -114 14 -76
-2 -110 0 -101 7 12 8 12 14 1 40 -7 17 -9 42 -6 56 4 15 2 25 -4 25 -6 0 -15
11 -20 25 -6 15 -17 25 -29 25 -12 0 -23 11 -30 30 -6 18 -6 30 0 30 5 0 9 -6
9 -14 0 -7 7 -19 15 -26 23 -19 19 7 -5 33 -11 12 -20 28 -19 37 3 36 -1 46
-12 27 -18 -32 -1 -109 33 -147 34 -39 48 -70 48 -105 0 -19 -7 -24 -46 -30
-63 -9 -76 -15 -70 -31 4 -11 -8 -14 -54 -14 -52 0 -64 -4 -95 -31 -42 -38
-77 -110 -112 -233 -15 -54 -37 -106 -53 -126 -31 -40 -38 -85 -41 -235 -2
-131 -2 -131 -57 -76 -106 104 -256 174 -392 183 -110 8 -134 2 -185 -47 -25
-24 -45 -50 -45 -57 0 -10 -3 -9 -11 2 -8 12 -9 10 -4 -7 4 -14 -1 -35 -11
-53 -17 -27 -19 -28 -36 -13 -10 8 -15 20 -12 25 4 6 10 5 16 -3 7 -10 8 -9 4
6 -6 19 -6 19 8 1 14 -18 15 -18 13 3 -1 22 -13 26 -36 12 -8 -5 -21 -7 -29
-4 -9 4 -4 10 17 19 20 8 31 20 31 33 0 10 6 22 13 25 6 3 -1 4 -17 3 -18 -1
-31 4 -34 12 -3 10 1 12 17 8 14 -3 21 -1 21 10 0 10 -6 12 -20 8 -16 -5 -20
-2 -20 14 0 14 6 21 19 21 11 0 22 4 26 9 3 6 -8 8 -28 4 -27 -4 -36 -1 -41
13 -4 9 -2 22 3 27 7 7 12 5 17 -6 8 -21 21 -22 41 -2 13 13 13 18 1 32 -11
14 -10 16 8 11 19 -5 20 -2 14 43 -4 27 -3 49 2 49 4 0 8 -5 8 -11 0 -5 5 -7
10 -4 8 5 7 11 -1 21 -6 7 -9 20 -6 28 3 8 -1 17 -9 20 -10 4 -11 11 -4 31 5
13 7 32 4 40 -5 11 -2 13 9 9 9 -3 18 -13 20 -22 2 -10 4 0 3 21 -1 21 -8 42
-16 47 -12 8 -8 12 18 22 35 13 45 34 12 25 -15 -4 -20 0 -20 13 0 11 5 22 11
26 6 3 9 17 6 30 -2 13 2 32 9 41 7 10 14 24 14 31 0 7 9 22 20 34 22 24 26
38 10 38 -5 0 -10 -5 -10 -11 0 -5 -5 -7 -10 -4 -15 9 9 37 26 31 16 -6 26 5
15 18 -14 18 -1 78 16 72 8 -3 11 -1 8 4 -3 6 0 10 7 10 15 0 40 48 32 61 -3
5 -12 9 -20 9 -16 0 -19 16 -5 24 5 4 11 0 14 -6 4 -10 7 -10 18 0 12 11 11
15 -2 25 -15 11 -12 15 22 31 47 23 50 36 9 36 -16 0 -30 5 -30 10 0 6 11 10
25 10 29 0 98 60 78 67 -21 8 -15 20 19 37 20 9 26 16 16 16 -29 0 -21 18 10
22 15 2 27 8 28 13 0 6 4 18 7 28 4 9 9 24 12 32 2 8 17 20 32 26 26 10 27 12
8 19 -16 7 -13 9 15 10 35 1 35 1 13 17 -28 19 -29 33 -4 33 28 0 47 26 32 44
-8 10 -9 16 -1 21 5 3 10 -1 10 -10 0 -9 5 -13 10 -10 6 3 10 19 10 36 0 29
13 39 25 18 11 -17 28 -4 40 31 7 22 23 39 43 49 27 14 32 21 32 56 1 32 3 37
11 23 12 -22 29 -23 29 -3 0 8 5 15 10 15 6 0 10 9 10 19 0 11 5 23 10 26 6 3
10 1 10 -4 0 -6 7 -11 15 -11 8 0 15 8 15 18 0 15 33 53 50 58 37 11 50 18 50
24 0 5 7 16 16 24 14 15 14 16 0 16 -9 0 -16 7 -16 15 0 17 16 20 25 5 3 -5
12 -10 18 -10 7 0 6 4 -3 10 -13 8 -13 10 2 10 27 0 32 21 7 28 l-24 6 25 7
c14 4 34 7 45 8 17 1 18 -1 5 -10 -13 -9 -13 -10 0 -6 8 2 16 16 18 30 3 23 8
27 36 27 32 0 63 20 50 33 -3 3 4 8 15 12 12 4 18 12 14 21 -6 16 12 20 22 4
4 -6 15 -2 27 10 12 11 25 20 30 20 4 0 8 7 8 15 0 8 7 15 15 15 8 0 15 4 15
9 0 5 8 12 18 15 37 14 62 31 62 42 0 6 13 14 30 17 20 4 28 11 24 20 -6 15 9
22 91 42 28 7 42 13 33 14 -29 2 -21 31 8 31 14 0 23 4 20 9 -3 5 -15 7 -26 4
-12 -3 -20 0 -20 6 0 9 13 10 43 6 23 -4 53 -2 67 4 l25 11 -25 -3 c-36 -3
-49 11 -36 40 6 12 14 23 19 23 11 0 8 -18 -4 -26 -7 -4 -7 -10 -1 -16 11 -11
72 -1 72 12 0 4 18 11 40 15 32 5 40 10 35 24 -4 12 2 17 22 19 34 3 44 12 13
12 -23 0 -20 14 3 16 28 2 78 17 83 25 3 5 -5 9 -18 10 -21 0 -20 2 7 11 21 8
30 8 33 0 6 -18 30 -14 52 8 11 11 27 20 35 20 8 0 15 4 15 8 0 5 16 15 35 22
23 9 34 19 30 28 -6 16 17 42 37 42 9 -1 7 -5 -4 -14 -10 -7 -18 -21 -18 -31
0 -17 2 -17 23 2 12 11 31 23 42 26 11 3 47 17 80 31 49 20 61 30 63 51 4 28
22 25 22 -4 0 -18 2 -18 35 -3 19 9 35 20 35 24 0 4 12 8 28 8 21 0 24 2 12
10 -11 7 -5 10 23 10 20 0 37 5 37 11 0 5 4 8 9 5 9 -6 61 16 61 26 0 15 -23
20 -31 7 -4 -7 -12 -10 -16 -5 -4 5 -2 11 5 13 7 3 22 15 34 27 l21 21 -6 -23
c-6 -27 20 -43 34 -21 7 11 12 12 29 1 18 -11 20 -10 20 8 0 20 9 24 41 21 9
-1 19 7 22 19 6 24 27 27 27 4 0 -9 6 -14 13 -11 25 8 13 42 -18 48 -29 6 -29
7 8 8 27 1 37 -3 37 -14 0 -18 20 -20 21 -2 0 10 2 10 6 0 2 -7 18 -13 34 -13
18 0 28 5 27 13 -2 6 5 11 14 11 10 -1 16 3 15 10 -1 6 8 10 21 8 13 -2 30 2
38 8 8 7 14 9 14 5 0 -4 6 -3 13 3 8 7 18 7 27 2 18 -11 30 -4 30 21 0 10 4
19 9 19 5 0 7 -10 4 -21 -6 -21 -5 -21 20 -4 15 9 33 15 40 12 7 -3 19 4 25
14 7 10 22 19 35 19 35 0 77 23 77 43 0 23 7 22 35 -9 22 -23 25 -24 31 -10 4
10 13 15 20 12 7 -3 17 0 21 7 8 12 18 14 78 19 16 2 38 11 47 21 24 23 38 21
39 -5 1 -17 2 -19 6 -5 3 10 14 17 28 17 32 0 40 16 13 24 -18 4 -20 8 -11 17
9 9 16 9 29 -2 22 -18 63 -23 80 -8 8 6 17 9 21 6 3 -4 14 -2 24 4 13 6 25 6
39 -1 14 -7 20 -7 20 0 0 5 18 10 40 10 22 0 40 5 40 10 0 6 -4 10 -10 10 -5
0 -10 7 -10 15 0 8 5 15 10 15 6 0 10 -7 10 -15 0 -21 27 -19 52 5 19 17 22
18 33 4 13 -18 51 -14 48 4 -2 7 4 12 12 12 8 0 15 -4 15 -10 0 -15 26 -12 40
5 7 9 19 14 27 11 8 -4 13 2 13 16 0 17 3 18 15 8 8 -7 21 -10 29 -7 8 3 17 1
20 -6 3 -9 7 -9 14 1 5 8 28 13 53 13 79 -1 121 5 130 20 6 9 12 10 17 4 4 -5
17 -15 29 -22 19 -11 22 -10 25 10 3 21 8 22 88 23 71 2 85 5 90 20 6 17 7 17
19 -1 8 -14 14 -16 17 -7 3 6 10 9 16 6 6 -4 14 -1 18 7 7 10 14 10 34 1 18
-8 27 -8 32 -1 3 6 22 9 40 7 19 -2 34 0 34 4 0 4 19 8 43 7 36 -1 38 -2 17
-9 -23 -7 -23 -8 -3 -9 12 -1 28 6 37 14 18 18 43 19 49 3 4 -9 8 -9 14 -3 4
6 28 11 52 13 25 1 51 7 57 13 7 6 22 8 34 4 12 -4 20 -2 20 5 0 8 9 10 28 4
48 -13 126 -10 139 6 11 13 14 13 22 0 9 -12 11 -12 17 3 8 23 24 22 24 -1z
m-950 -98 c0 -8 -4 -12 -10 -9 -5 3 -10 10 -10 16 0 5 5 9 10 9 6 0 10 -7 10
-16z m-690 -104 c0 -5 -7 -10 -15 -10 -8 0 -15 5 -15 10 0 6 7 10 15 10 8 0
15 -4 15 -10z m-693 -166 c-3 -3 -12 -4 -19 -1 -8 3 -5 6 6 6 11 1 17 -2 13
-5z m-57 -19 c0 -10 -10 -15 -31 -15 -17 0 -28 4 -24 10 3 5 12 7 19 4 8 -3
17 -1 21 5 9 15 15 14 15 -4z m-110 -25 c0 -5 -2 -10 -4 -10 -3 0 -8 5 -11 10
-3 6 -1 10 4 10 6 0 11 -4 11 -10z m-1035 -439 c-3 -6 -14 -11 -23 -11 -13 0
-13 2 4 14 21 15 30 14 19 -3z m-129 -87 c-18 -18 -26 -18 -26 0 0 15 20 26
33 19 4 -2 1 -11 -7 -19z m8389 -74 c3 -6 -1 -7 -9 -4 -18 7 -21 14 -7 14 6 0
13 -4 16 -10z m-8775 -166 c0 -2 -9 -4 -21 -4 -11 0 -18 4 -14 10 5 8 35 3 35
-6z m-50 -29 c0 -8 -4 -15 -10 -15 -5 0 -10 7 -10 15 0 8 5 15 10 15 6 0 10
-7 10 -15z m-115 -85 c-3 -5 -15 -10 -26 -10 -11 0 -17 5 -14 10 3 6 15 10 26
10 11 0 17 -4 14 -10z m-22 -37 c-7 -2 -19 -2 -25 0 -7 3 -2 5 12 5 14 0 19
-2 13 -5z m9451 -19 c3 -8 2 -12 -4 -9 -6 3 -10 10 -10 16 0 14 7 11 14 -7z
m-9671 -134 c3 -11 1 -23 -4 -26 -5 -3 -9 6 -9 20 0 31 6 34 13 6z m-23 -20
c0 -5 -4 -10 -10 -10 -5 0 -10 5 -10 10 0 6 5 10 10 10 6 0 10 -4 10 -10z
m-30 -55 c0 -8 -4 -15 -10 -15 -5 0 -10 7 -10 15 0 8 5 15 10 15 6 0 10 -7 10
-15z m7658 -110 c246 -15 299 -20 527 -50 116 -15 315 -54 500 -97 161 -37
288 -79 381 -125 100 -49 199 -127 190 -150 -3 -8 -2 -11 3 -8 5 3 12 1 16 -5
17 -28 -21 -4 -64 40 -26 27 -51 47 -55 45 -3 -3 -4 -2 -1 2 8 10 -55 34 -68
26 -5 -3 -7 -1 -4 4 8 12 -20 27 -42 24 -8 -1 -10 2 -6 9 6 9 2 9 -14 1 -17
-10 -20 -9 -15 4 4 9 3 15 -2 14 -19 -5 -84 14 -78 22 3 5 -5 9 -18 9 -13 0
-28 4 -34 10 -5 5 -23 12 -39 14 -57 8 -95 19 -95 26 0 5 -19 11 -42 15 -24 4
-75 15 -114 26 -39 11 -90 20 -113 22 -22 1 -41 5 -41 8 0 11 -116 30 -135 23
-11 -5 -16 -4 -12 3 4 6 -8 9 -33 8 -22 -1 -40 1 -40 5 0 5 -24 8 -52 9 -29 0
-82 5 -118 11 -35 6 -70 8 -77 6 -7 -3 -15 -1 -17 3 -3 5 -34 8 -70 7 -35 0
-62 2 -60 5 2 4 -51 10 -119 14 -67 4 -133 9 -147 11 -42 5 -332 5 -416 0 -91
-6 -74 0 36 13 116 13 221 12 488 -4z m2412 5 c0 -5 -2 -10 -4 -10 -3 0 -8 5
-11 10 -3 6 -1 10 4 10 6 0 11 -4 11 -10z m-3023 -26 c-3 -3 -12 -4 -19 -1 -8
3 -5 6 6 6 11 1 17 -2 13 -5z m-1539 -201 c-21 -2 -55 -2 -75 0 -21 2 -4 4 37
4 41 0 58 -2 38 -4z m1245 -65 c0 -45 -26 -100 -193 -408 -31 -58 -76 -141
-100 -185 -88 -165 -162 -295 -172 -301 -12 -8 -8 1 236 461 199 376 201 381
201 442 0 54 2 60 14 48 8 -8 14 -33 14 -57z m-1658 31 c-22 -4 -60 -7 -85 -7
l-45 1 55 7 c30 4 69 7 85 7 24 1 23 -1 -10 -8z m5205 2 c0 -6 -4 -13 -10 -16
-5 -3 -10 1 -10 9 0 9 5 16 10 16 6 0 10 -4 10 -9z m-5353 -17 c-3 -3 -12 -4
-19 -1 -8 3 -5 6 6 6 11 1 17 -2 13 -5z m273 -2 c0 -5 -7 -17 -15 -28 -14 -18
-14 -17 -4 9 12 27 19 34 19 19z m-5600 -22 c0 -5 -4 -10 -10 -10 -5 0 -10 5
-10 10 0 6 5 10 10 10 6 0 10 -4 10 -10z m5460 -262 c-55 -114 -100 -211 -100
-218 0 -28 25 11 75 117 l54 115 53 -6 c29 -3 114 -11 188 -17 239 -19 260
-31 260 -149 0 -68 0 -69 -39 -99 -41 -33 -80 -94 -101 -156 -6 -19 -18 -35
-26 -35 -23 0 -30 -31 -10 -45 14 -11 -14 -12 -147 -8 -162 6 -164 6 -185 -17
l-22 -24 0 27 c0 14 -8 31 -17 36 -10 6 -13 11 -8 11 10 0 45 51 45 64 0 3
-34 6 -75 6 -46 0 -75 -4 -75 -11 0 -5 5 -7 10 -4 6 3 10 1 10 -4 0 -15 -13
-14 -36 4 -11 8 -14 15 -6 15 6 0 12 7 12 16 0 30 -25 8 -28 -25 -3 -26 1 -34
17 -38 12 -3 21 -9 21 -14 0 -5 7 -9 15 -9 8 0 15 5 15 10 0 6 14 10 30 10 33
0 39 -14 13 -29 -10 -6 -12 -11 -5 -11 6 0 12 -5 12 -11 0 -6 -7 -9 -15 -5 -8
3 -15 0 -16 -7 0 -7 -4 -2 -9 11 -10 23 -25 29 -34 13 -8 -13 14 -273 24 -291
7 -12 10 -10 11 10 l1 25 8 -25 c14 -43 11 -57 -12 -64 -22 -7 -22 -8 -4 -15
18 -7 16 -9 -11 -19 -27 -9 -31 -8 -26 5 5 13 -3 14 -53 8 -149 -16 -263 -62
-391 -156 -222 -164 -402 -434 -493 -741 -31 -105 -45 -137 -34 -77 20 102 85
281 146 404 100 196 293 402 468 498 74 41 206 81 298 92 l62 7 0 133 c0 142
-4 165 -27 165 -8 0 -11 5 -8 10 6 10 -7 14 -33 11 -9 -2 -11 9 -6 39 4 22 4
40 1 40 -3 0 -15 -15 -26 -34 -13 -20 -32 -36 -48 -39 -26 -5 -26 -5 6 20 17
13 31 29 31 35 0 5 9 23 20 39 12 15 27 50 35 77 8 27 24 57 34 66 11 10 70
121 132 247 62 126 114 227 116 225 2 -1 -42 -95 -97 -208z m5303 188 c4 -10
1 -13 -9 -9 -15 6 -19 23 -5 23 5 0 11 -7 14 -14z m-5110 -83 c-3 -7 -16 -13
-29 -13 -33 0 -51 38 -34 71 l13 23 27 -34 c15 -19 26 -40 23 -47z m5162 -21
c-6 -7 -34 11 -29 19 3 5 11 3 19 -4 7 -6 12 -13 10 -15z m55 -27 c0 -8 -7
-15 -15 -15 -8 0 -15 7 -15 15 0 8 7 15 15 15 8 0 15 -7 15 -15z m-11023 -17
c-3 -8 -6 -5 -6 6 -1 11 2 17 5 13 3 -3 4 -12 1 -19z m5546 -27 c16 -6 6 -32
-88 -219 -59 -117 -121 -228 -139 -246 -22 -23 -45 -35 -76 -41 -44 -8 -44 -8
-15 -15 20 -5 25 -9 15 -13 -29 -10 -60 -15 -55 -8 2 4 -19 6 -48 4 -172 -10
-227 -9 -227 4 0 14 -49 38 -58 29 -6 -6 19 -31 38 -39 21 -8 -30 -8 -127 -1
l-81 7 16 33 c12 27 20 33 36 28 12 -3 30 -8 41 -10 l20 -4 -20 9 c-11 5 -28
12 -38 15 -16 5 -16 8 -2 43 37 89 178 390 191 408 10 13 32 22 67 26 62 8
524 -1 550 -10z m3667 10 c0 -11 -29 -35 -35 -29 -10 9 7 38 21 38 8 0 14 -4
14 -9z m-9223 -17 c-3 -3 -12 -4 -19 -1 -8 3 -5 6 6 6 11 1 17 -2 13 -5z
m11063 -64 c0 -5 -7 -10 -15 -10 -8 0 -15 5 -15 10 0 6 7 10 15 10 8 0 15 -4
15 -10z m-2102 -302 l-3 -293 -145 -5 c-94 -3 -164 -1 -200 7 -68 15 -219 30
-457 45 l-181 12 -7 93 c-10 134 -2 261 19 301 10 20 31 39 52 48 51 21 200
41 439 59 197 14 269 18 423 23 l62 2 -2 -292z m-9018 182 c0 -5 -4 -10 -9
-10 -6 0 -13 5 -16 10 -3 6 1 10 9 10 9 0 16 -4 16 -10z m6210 -236 l0 -95
-42 3 c-60 4 -65 33 -9 48 48 13 54 30 11 30 -32 0 -36 9 -19 43 11 21 49 67
56 67 2 0 3 -43 3 -96z m-6373 -11 c-3 -10 -5 -4 -5 12 0 17 2 24 5 18 2 -7 2
-21 0 -30z m5790 1 c-3 -3 -12 -4 -19 -1 -8 3 -5 6 6 6 11 1 17 -2 13 -5z
m454 -40 c-18 -8 -36 -13 -39 -10 -6 7 37 25 58 25 8 -1 0 -7 -19 -15z m-4861
-4 c0 -12 -8 -12 -35 0 -18 8 -17 9 8 9 15 1 27 -3 27 -9z m4900 -86 c0 -2
-11 -4 -25 -4 -14 0 -25 4 -25 9 0 4 11 6 25 3 14 -2 25 -6 25 -8z m47 -10
c-3 -3 -12 -4 -19 -1 -8 3 -5 6 6 6 11 1 17 -2 13 -5z m693 -96 c0 -9 -54 -38
-70 -38 -5 0 -10 11 -10 24 0 22 4 24 40 23 22 -1 40 -5 40 -9z m-110 -18 c0
-5 -17 -9 -37 -9 l-38 2 35 7 c19 4 36 8 38 9 1 0 2 -3 2 -9z m-5885 -125 c0
-69 -3 -95 -12 -95 -9 0 -13 22 -13 79 0 78 6 111 19 111 3 0 6 -43 6 -95z
m37 11 c-3 -55 -1 -86 7 -90 8 -5 11 11 12 51 1 56 7 114 13 121 6 5 213 -28
259 -42 27 -8 73 -29 103 -47 45 -28 54 -38 54 -61 0 -18 -5 -28 -15 -28 -10
0 -15 10 -15 32 0 23 -3 29 -11 21 -17 -17 -6 -57 19 -68 22 -10 23 -14 20
-107 -2 -60 1 -96 7 -95 6 1 9 -6 7 -17 -2 -11 1 -15 8 -11 6 4 8 15 5 25 -3
10 -2 21 4 24 15 9 33 -88 29 -156 -2 -45 1 -63 10 -64 6 -1 14 -3 17 -4 16
-7 49 -3 53 8 3 10 -10 14 -34 11 -27 -3 -33 147 -10 221 8 25 15 36 15 25 1
-11 5 -16 9 -10 10 14 34 12 51 -3 7 -7 20 -11 27 -8 8 3 14 1 14 -5 0 -6 7
-9 15 -5 10 4 15 -1 15 -14 0 -15 6 -19 28 -18 15 1 30 7 34 13 5 6 8 2 8 -8
0 -11 5 -15 11 -11 21 13 0 125 -31 172 -31 45 -30 53 4 25 20 -18 20 -18 2
11 -18 28 -18 29 0 21 11 -4 44 -14 74 -23 30 -9 60 -21 65 -28 6 -6 36 -24
68 -40 78 -39 144 -90 185 -144 19 -25 42 -48 51 -52 9 -4 10 -7 4 -7 -7 -1
-13 -7 -13 -15 0 -18 -53 -14 -179 12 -57 13 -102 17 -115 12 -18 -7 -22 -2
-33 34 l-11 41 -1 -42 c-1 -23 -5 -43 -11 -45 -5 -1 -10 -29 -11 -60 -1 -32
-5 -55 -9 -53 -5 3 -11 -7 -14 -20 -4 -14 -10 -24 -14 -21 -4 2 -7 -13 -7 -34
0 -47 4 -43 28 18 10 28 15 35 11 17 -12 -67 -97 -210 -117 -198 -6 4 -4 10 5
17 8 6 16 14 16 19 1 4 9 19 18 32 20 30 12 44 -12 24 -15 -12 -17 -12 -12 1
3 8 15 15 27 14 17 0 21 5 21 28 0 17 -4 27 -10 23 -5 -3 -10 -12 -10 -20 0
-8 -7 -11 -18 -8 -10 2 -25 -3 -33 -13 -9 -11 -9 -15 -1 -10 6 4 12 4 12 -1 0
-4 -23 -21 -51 -38 -28 -16 -61 -36 -73 -43 -11 -7 -42 -11 -68 -10 -44 3 -47
1 -42 -17 4 -16 3 -17 -5 -5 -6 8 -11 11 -11 5 0 -5 -4 -4 -8 3 -5 7 -9 -63
-11 -155 -1 -92 -4 -170 -7 -175 -11 -17 -21 -7 -18 20 7 61 8 909 1 930 -5
12 -15 22 -24 22 -12 0 -14 10 -12 44 2 24 1 42 -3 39 -5 -2 -8 -22 -8 -44 0
-26 -4 -39 -14 -39 -7 0 -18 -6 -24 -12 -6 -8 -14 -199 -22 -493 -13 -577 -15
-604 -30 -618 -9 -9 -10 1 -6 43 3 30 7 260 9 510 3 312 2 386 -3 235 -4 -121
-11 -356 -15 -523 -7 -245 -11 -304 -23 -314 -12 -10 -13 -3 -8 52 8 90 22
850 18 988 -3 92 -1 112 11 112 18 0 24 -16 23 -58 -1 -17 3 -32 8 -32 4 0 6
20 4 45 -2 31 1 45 9 45 7 0 13 5 13 10 0 6 -7 10 -16 10 -14 0 -15 9 -9 65 4
44 3 65 -4 65 -7 0 -11 -25 -11 -65 0 -51 -3 -65 -15 -65 -12 0 -15 15 -15 72
0 39 -3 68 -7 65 -3 -4 -5 -36 -4 -72 l2 -65 -33 0 c-19 0 -38 -4 -43 -10 -7
-6 -10 23 -9 78 0 83 0 83 -3 12 -2 -41 -9 -77 -15 -81 -5 -4 -41 -7 -80 -8
l-69 -1 2 95 c2 62 7 95 14 95 8 0 10 -26 7 -84z m5385 78 c-3 -3 -12 -4 -19
-1 -8 3 -5 6 6 6 11 1 17 -2 13 -5z m-5531 -106 l-1 -82 -74 -13 c-41 -7 -77
-10 -79 -8 -7 7 27 55 38 55 6 0 10 7 10 15 0 8 5 15 11 15 6 0 9 5 7 12 -4
12 25 45 64 72 12 9 23 16 24 16 1 0 1 -37 0 -82z m4487 5 c-7 -2 -19 -2 -25
0 -7 3 -2 5 12 5 14 0 19 -2 13 -5z m-3819 -24 c5 -5 6 -12 2 -16 -4 -4 -11
-2 -15 6 -6 10 -10 9 -15 -4 -3 -9 -4 -21 0 -26 3 -5 -4 -9 -14 -9 -15 0 -21
8 -24 35 -4 35 -4 36 26 29 17 -3 35 -10 40 -15z m6013 15 c-3 -3 -12 -4 -19
-1 -8 3 -5 6 6 6 11 1 17 -2 13 -5z m70 0 c-3 -3 -12 -4 -19 -1 -8 3 -5 6 6 6
11 1 17 -2 13 -5z m2366 -1 c-13 -2 -33 -2 -45 0 -13 2 -3 4 22 4 25 0 35 -2
23 -4z m-4160 -18 c27 -4 47 -9 44 -11 -8 -8 -137 8 -137 18 0 4 10 6 23 4 12
-3 44 -8 70 -11z m-4178 -25 c3 -6 -1 -7 -9 -4 -18 7 -21 14 -7 14 6 0 13 -4
16 -10z m8002 4 c-3 -3 -12 -4 -19 -1 -8 3 -5 6 6 6 11 1 17 -2 13 -5z m56
-11 c-7 -2 -21 -2 -30 0 -10 3 -4 5 12 5 17 0 24 -2 18 -5z m-7988 -53 c4 -8
-8 -2 -24 14 -17 17 -31 31 -31 33 0 9 50 -34 55 -47z m8083 43 c-10 -2 -26
-2 -35 0 -10 3 -2 5 17 5 19 0 27 -2 18 -5z m-9888 -13 c0 -5 -4 -10 -10 -10
-5 0 -10 5 -10 10 0 6 5 10 10 10 6 0 10 -4 10 -10z m2130 -29 c37 -22 73 -48
81 -58 13 -17 13 -17 -6 -1 -11 9 -51 35 -90 57 -38 23 -66 41 -60 41 5 0 39
-18 75 -39z m8080 30 c25 -5 38 -10 30 -11 -8 -1 -19 -1 -25 0 -5 1 -48 5 -95
10 -84 7 -85 7 -20 8 36 0 85 -3 110 -7z m-4128 -36 c74 -22 126 -44 106 -45
-4 0 -35 6 -70 14 -35 8 -97 18 -138 22 -41 4 -88 13 -104 19 -16 7 -48 11
-70 9 -33 -4 -37 -2 -21 6 35 18 206 4 297 -25z m-5024 -214 c-16 -533 -30
-901 -38 -976 -6 -56 -7 -20 -4 120 2 110 7 353 10 540 4 187 8 347 10 355 1
8 3 56 3 106 1 65 4 91 14 91 9 0 10 -50 5 -236z m88 67 c-3 -95 -11 -339 -16
-543 -11 -392 -16 -471 -31 -480 -5 -4 -7 50 -4 132 12 309 25 802 25 928 0
119 2 135 16 135 15 0 16 -17 10 -172z m40 -383 c-17 -549 -23 -645 -38 -645
-6 0 -7 39 -4 103 3 56 8 230 11 387 11 532 16 693 22 703 21 34 23 -80 9
-548z m48 547 c3 -5 1 -134 -4 -288 -5 -153 -12 -418 -17 -589 -4 -170 -10
-294 -14 -275 -6 35 -6 35 -8 -9 0 -24 -3 -42 -5 -40 -3 2 -1 171 4 374 20
814 22 862 44 827z m51 -12 c4 -11 4 -44 1 -73 -3 -28 -11 -281 -17 -562 -8
-367 -15 -518 -24 -540 -14 -32 -14 -28 4 725 5 190 6 366 4 393 -5 50 0 77
16 77 5 0 13 -9 16 -20z m38 -37 c-1 -32 -7 -267 -13 -523 -11 -505 -18 -646
-30 -633 -4 4 -4 188 0 408 13 610 21 805 34 805 7 0 10 -21 9 -57z m132 -84
c0 -210 -16 -903 -22 -911 -2 -5 -9 -8 -14 -8 -6 0 -8 3 -6 8 4 5 17 802 17
1005 0 35 4 47 13 44 9 -3 12 -39 12 -138z m43 95 c7 -93 -26 -956 -37 -967
-14 -14 -14 35 -1 388 5 143 10 342 11 443 1 131 5 182 13 179 6 -2 12 -21 14
-43z m85 14 c-10 -55 -24 -68 -19 -18 3 25 5 46 5 48 1 1 5 2 11 2 5 0 7 -14
3 -32z m8794 5 c40 -10 73 -21 73 -25 0 -4 -6 -5 -12 -3 -38 12 -156 38 -171
37 -10 0 -15 4 -11 10 7 10 8 10 121 -19z m-9267 -110 c-1 -231 -30 -1017 -39
-1053 -8 -32 -4 706 4 749 2 9 4 109 4 224 1 177 3 207 16 207 13 0 15 -21 15
-127z m10440 117 c0 -5 -4 -10 -9 -10 -6 0 -13 5 -16 10 -3 6 1 10 9 10 9 0
16 -4 16 -10z m-10643 -77 c-2 -16 -4 -3 -4 27 0 30 2 43 4 28 2 -16 2 -40 0
-55z m20 10 c-2 -16 -4 -5 -4 22 0 28 2 40 4 28 2 -13 2 -35 0 -50z m20 -235
c-1 -57 -3 -11 -3 102 0 113 2 159 3 103 2 -57 2 -149 0 -205z m4727 293 c3
-4 -6 -6 -19 -3 -14 2 -25 6 -25 8 0 8 39 4 44 -5z m-4797 -93 c-2 -18 -4 -4
-4 32 0 36 2 50 4 33 2 -18 2 -48 0 -65z m-76 67 c6 15 8 11 8 -18 1 -21 -3
-36 -8 -33 -4 3 -8 -90 -7 -207 1 -270 -12 -741 -24 -832 -6 -45 -7 67 -4 315
5 434 16 805 22 775 l5 -20 8 20z m7126 9 c-3 -3 -12 -4 -19 -1 -8 3 -5 6 6 6
11 1 17 -2 13 -5z m-6910 -51 c-3 -10 -5 -2 -5 17 0 19 2 27 5 18 2 -10 2 -26
0 -35z m4532 43 c-2 -2 -15 -9 -29 -15 -24 -11 -24 -11 -6 3 16 13 49 24 35
12z m4981 -6 c19 -5 89 -19 155 -30 157 -27 493 -115 482 -126 -4 -5 -186 32
-220 45 -16 6 -42 11 -59 11 -17 0 -28 3 -24 7 4 4 -28 13 -71 20 -42 8 -80
18 -83 24 -4 5 -14 7 -23 3 -10 -3 -24 -1 -32 6 -8 7 -26 10 -40 8 -13 -3 -26
-2 -27 2 -2 4 -18 10 -36 13 -19 4 -31 3 -27 -2 3 -6 -8 -3 -25 5 -49 25 -34
32 30 14z m-4455 -20 c-3 -5 7 -8 25 -5 17 2 28 0 25 -5 -3 -4 10 -8 28 -8 33
0 172 -64 212 -97 12 -10 6 -8 -16 4 -20 12 -70 36 -110 53 -73 32 -76 32
-241 33 -91 0 -165 1 -164 3 2 1 54 8 117 16 63 8 118 14 122 15 5 1 6 -3 2
-9z m3398 3 c-7 -2 -19 -2 -25 0 -7 3 -2 5 12 5 14 0 19 -2 13 -5z m205 -10
c-21 -2 -55 -2 -75 0 -21 2 -4 4 37 4 41 0 58 -2 38 -4z m69 1 c-3 -3 -12 -4
-19 -1 -8 3 -5 6 6 6 11 1 17 -2 13 -5z m-7472 -44 c21 -22 37 -40 34 -40 -3
0 -23 18 -44 40 -21 22 -37 40 -34 40 3 0 23 -18 44 -40z m729 9 c56 -20 95
-52 77 -63 -5 -3 -22 -1 -37 4 -15 6 -53 12 -85 13 -33 1 -59 5 -59 9 0 3 -12
21 -27 39 l-27 32 53 -7 c29 -4 76 -16 105 -27z m42 11 c42 -21 86 -60 67 -60
-6 0 -17 7 -24 17 -8 9 -36 27 -64 39 -27 13 -44 24 -36 24 8 0 34 -9 57 -20z
m6847 13 c-23 -2 -64 -2 -90 0 -26 2 -7 3 42 3 50 0 71 -1 48 -3z m180 -10
c-13 -2 -33 -2 -45 0 -13 2 -3 4 22 4 25 0 35 -2 23 -4z m-10133 -19 c0 -2 -7
-4 -15 -4 -8 0 -15 4 -15 10 0 5 7 7 15 4 8 -4 15 -8 15 -10z m338 -8 c26 -13
56 -33 66 -45 12 -13 29 -20 45 -19 15 1 40 -8 57 -21 17 -12 40 -23 52 -24
20 -1 20 -3 7 -24 -8 -12 -15 -30 -15 -39 0 -13 3 -14 15 -4 8 7 15 22 15 34
0 17 3 15 16 -10 8 -18 24 -41 35 -53 23 -24 44 -79 35 -88 -3 -4 -6 0 -6 8
-1 8 -12 28 -26 44 -13 17 -22 22 -19 13 4 -9 1 -27 -6 -40 -7 -13 -12 -43
-11 -68 1 -25 -4 -56 -12 -70 -13 -23 -14 -20 -9 35 3 33 7 62 9 64 7 7 -17
41 -29 41 -8 0 -12 -25 -12 -88 0 -78 -3 -94 -31 -152 -18 -36 -44 -76 -59
-90 -25 -23 -25 -20 8 30 20 30 38 69 42 85 4 25 1 22 -18 -15 -31 -63 -64
-104 -111 -141 l-41 -32 45 47 c25 26 37 44 28 40 -13 -4 -18 -1 -18 11 0 9 5
13 10 10 6 -3 10 -2 10 4 0 18 32 43 40 31 4 -6 11 1 18 17 11 24 10 26 -1 11
-8 -10 -17 -15 -20 -12 -3 4 -25 -8 -47 -26 -33 -26 -44 -30 -53 -20 -10 10
-9 11 3 5 13 -8 13 -6 1 8 -9 11 -11 28 -7 52 6 30 4 35 -12 35 -11 0 -25 -7
-32 -15 -16 -20 -97 -64 -104 -57 -3 3 -6 15 -7 26 0 20 -1 20 -9 -1 -11 -27
-48 -31 -57 -6 -6 15 -7 15 -14 -3 -7 -18 -8 -17 -8 3 -1 12 -5 25 -11 28 -16
10 -12 62 6 69 32 12 84 7 84 -9 0 -8 5 -15 10 -15 6 0 9 3 9 8 -4 26 3 28 59
21 99 -14 84 12 -20 35 -26 6 -28 10 -28 56 0 48 1 50 24 44 13 -3 34 0 47 6
l23 13 -35 28 c-19 16 -28 29 -21 29 7 0 11 3 9 8 -3 4 8 7 24 8 18 1 29 -4
29 -12 0 -8 10 -14 23 -14 31 0 110 -59 103 -76 -3 -8 4 -19 16 -25 18 -10 24
-8 38 11 16 21 16 21 14 -17 -3 -37 -3 -37 6 -8 7 22 8 9 6 -50 -3 -59 -1 -72
5 -50 16 52 14 142 -4 159 -8 9 -18 29 -22 46 -4 17 -10 28 -13 26 -4 -2 -8
10 -8 27 -1 31 -41 77 -67 77 -7 0 -22 16 -34 35 -13 19 -40 43 -60 54 -21 11
-34 20 -30 21 4 0 29 -11 55 -24z m5539 18 c-3 -3 -12 -4 -19 -1 -8 3 -5 6 6
6 11 1 17 -2 13 -5z m5700 -26 c-3 -8 -6 -5 -6 6 -1 11 2 17 5 13 3 -3 4 -12
1 -19z m-8664 -64 c34 -3 37 -4 37 -24 0 -25 -24 -37 -61 -32 -25 4 -29 8 -29
37 0 19 5 46 12 62 l12 28 5 -35 c4 -24 12 -36 24 -36z m7724 50 c-3 -3 -12
-4 -19 -1 -8 3 -5 6 6 6 11 1 17 -2 13 -5z m-10637 -14 c0 -5 -7 -10 -15 -10
-8 0 -15 5 -15 10 0 6 7 10 15 10 8 0 15 -4 15 -10z m2940 -20 c0 -5 -7 -7
-15 -4 -8 4 -15 8 -15 10 0 2 7 4 15 4 8 0 15 -4 15 -10z m255 0 c3 -5 -1 -10
-9 -10 -9 0 -16 5 -16 10 0 6 4 10 9 10 6 0 13 -4 16 -10z m7622 4 c-3 -3 -12
-4 -19 -1 -8 3 -5 6 6 6 11 1 17 -2 13 -5z m76 -11 c-7 -2 -21 -2 -30 0 -10 3
-4 5 12 5 17 0 24 -2 18 -5z m60 -10 c-7 -2 -19 -2 -25 0 -7 3 -2 5 12 5 14 0
19 -2 13 -5z m-10923 -13 c0 -5 -9 -10 -21 -10 -11 0 -17 5 -14 10 3 6 13 10
21 10 8 0 14 -4 14 -10z m3089 1 c8 -5 -5 -7 -35 -4 -68 6 -77 11 -24 12 25 0
51 -3 59 -8z m-2162 -203 c-1 -40 -3 -10 -3 67 0 77 1 110 3 73 2 -37 2 -100
0 -140z m6371 181 c-22 -12 -24 -33 -3 -26 8 4 17 2 21 -4 7 -12 5 -15 -23
-23 -20 -7 -23 -4 -23 22 0 33 7 42 29 42 14 -1 13 -2 -1 -11z m-7276 -12 c19
-19 8 -225 -13 -238 -8 -5 -32 -9 -54 -9 -22 0 -76 -7 -120 -15 -44 -8 -86
-15 -94 -15 -62 -1 150 45 242 52 31 3 31 2 15 31 -10 20 -10 21 5 8 16 -12
17 -6 14 82 -2 53 -7 100 -12 104 -4 4 -5 0 -2 -10 4 -11 3 -16 -3 -12 -13 8
-13 35 -1 35 5 0 16 -6 23 -13z m855 -159 c-2 -29 -3 -6 -3 52 0 58 1 81 3 53
2 -29 2 -77 0 -105z m-20 110 c-3 -7 -5 -2 -5 12 0 14 2 19 5 13 2 -7 2 -19 0
-25z m6702 12 c35 -6 70 -9 78 -6 9 4 11 1 7 -5 -7 -11 -138 -6 -191 7 -18 5
-25 0 -33 -20 -11 -31 -25 -33 -40 -7 -8 17 -6 22 17 35 29 15 53 15 162 -4z
m-7314 0 c3 -5 -1 -10 -10 -10 -9 0 -13 5 -10 10 3 6 8 10 10 10 2 0 7 -4 10
-10z m652 -172 c-2 -35 -3 -7 -3 62 0 69 1 97 3 63 2 -35 2 -91 0 -125z m-690
166 c-3 -3 -12 -4 -19 -1 -8 3 -5 6 6 6 11 1 17 -2 13 -5z m2848 -56 c-39 -10
-75 -2 -75 17 0 10 10 15 31 15 25 0 30 3 25 18 -4 9 5 4 21 -13 l28 -30 -30
-7z m-2108 -160 c-1 -40 -3 -8 -3 72 0 80 2 112 3 73 2 -40 2 -106 0 -145z
m1393 171 c0 -6 -4 -7 -10 -4 -5 3 -10 11 -10 16 0 6 5 7 10 4 6 -3 10 -11 10
-16z m-47 -24 c-5 -25 -7 -27 -13 -10 -4 11 -3 26 3 33 14 17 16 12 10 -23z
m-2292 -6 c-5 -13 -10 -19 -10 -12 -1 15 10 45 15 40 3 -2 0 -15 -5 -28z
m1036 -66 c-2 -16 -4 -5 -4 22 0 28 2 40 4 28 2 -13 2 -35 0 -50z m932 -12
c-27 -101 -106 -212 -180 -255 -25 -15 -18 -5 27 37 68 63 113 138 140 237 10
36 20 57 22 46 2 -10 -2 -39 -9 -65z m224 52 c15 -7 27 -18 27 -23 0 -14 -5
-13 -42 10 -18 11 -46 20 -63 20 -23 0 -26 3 -15 10 17 10 51 4 93 -17z m9458
-10 l24 -28 -30 25 c-16 14 -32 26 -34 28 -2 1 0 2 6 2 5 0 20 -12 34 -27z
m-11491 1 c0 -8 -4 -12 -10 -9 -5 3 -10 10 -10 16 0 5 5 9 10 9 6 0 10 -7 10
-16z m2787 10 c-3 -3 -12 -4 -19 -1 -8 3 -5 6 6 6 11 1 17 -2 13 -5z m-2328
-47 c-1 -31 -1 -31 -9 -7 -5 17 -8 19 -9 8 -1 -27 -21 -22 -21 5 0 16 6 23 20
24 16 1 20 -4 19 -30z m2676 3 c124 -12 266 -43 395 -87 135 -46 442 -203 578
-294 23 -16 45 -29 49 -29 6 0 89 -64 108 -84 6 -5 -1 -2 -15 7 -14 9 -38 24
-55 33 -16 9 -46 29 -65 44 -19 15 -52 33 -72 41 -21 7 -38 16 -38 20 0 12
-102 59 -113 52 -6 -3 -7 -1 -3 6 5 8 -3 16 -23 24 -17 6 -31 15 -31 19 0 4
-7 5 -15 2 -8 -4 -15 -2 -15 4 0 5 -15 15 -32 23 -18 7 -44 20 -58 29 -14 9
-44 22 -67 28 -23 7 -49 19 -57 28 -9 8 -20 12 -26 9 -5 -3 -10 -2 -10 3 0 6
-12 13 -27 17 -16 5 -32 10 -38 12 -13 4 -133 33 -165 39 -14 3 -35 5 -48 5
-13 -1 -21 2 -19 7 3 4 -16 8 -41 8 -253 7 -308 10 -294 17 9 4 -19 5 -63 2
-44 -4 -90 -6 -102 -7 -13 0 -23 -4 -23 -8 0 -4 -15 -8 -32 -8 -18 -1 -48 -6
-67 -11 -19 -6 -37 -9 -39 -7 -14 14 179 52 298 58 25 2 58 4 75 6 16 1 83 -2
150 -8z m-2655 -100 c-6 -23 -13 -40 -15 -38 -3 2 0 20 5 39 6 18 11 50 12 69
l1 35 4 -32 c2 -17 -1 -50 -7 -73z m11067 83 c0 -9 -4 -10 -14 -2 -7 6 -13 12
-13 14 0 1 6 2 13 2 8 0 14 -6 14 -14z m-11720 1 c-3 -3 -12 -4 -19 -1 -8 3
-5 6 6 6 11 1 17 -2 13 -5z m2378 -2 c-6 -5 -49 -37 -96 -71 -61 -44 -92 -59
-104 -54 -14 5 -16 3 -10 -7 6 -10 4 -12 -9 -7 -10 4 -25 7 -34 7 -27 0 -4 15
121 79 106 55 158 76 132 53z m3807 -23 c115 -38 218 -121 297 -238 205 -301
233 -693 76 -1046 -64 -146 -189 -284 -307 -342 -69 -35 -93 -40 -103 -23 -3
6 -1 10 5 10 22 0 135 62 178 97 164 134 295 410 309 650 21 359 -150 718
-400 839 -206 99 -417 56 -592 -120 -67 -67 -90 -99 -133 -186 -29 -58 -65
-150 -80 -205 -25 -91 -27 -115 -27 -270 1 -120 5 -188 17 -232 8 -35 12 -63
8 -63 -12 0 -33 110 -39 210 -13 186 16 377 82 529 139 323 432 484 709 390z
m-3417 -18 c-12 -10 -65 -24 -65 -16 0 2 15 9 33 14 43 12 42 12 32 2z m-1788
-168 c-2 -21 -4 -4 -4 37 0 41 2 58 4 38 2 -21 2 -55 0 -75z m853 81 c0 -9
-10 -24 -22 -33 -15 -13 -18 -20 -9 -25 6 -4 10 -4 9 1 -3 9 5 13 23 13 8 0 7
-5 -1 -15 -7 -9 -22 -14 -34 -13 -15 2 -20 -2 -18 -13 3 -24 -25 -32 -38 -11
-10 15 -11 15 -6 0 2 -9 -2 -19 -10 -22 -8 -3 -12 -1 -9 4 4 6 -11 8 -37 5
-24 -2 -35 -2 -25 1 12 4 16 12 12 23 -4 14 4 21 35 31 22 7 49 22 60 32 13
13 20 15 21 6 0 -7 4 -3 9 10 11 25 40 30 40 6z m-903 -56 c-3 -8 -6 -5 -6 6
-1 11 2 17 5 13 3 -3 4 -12 1 -19z m1233 -5 c-13 -3 -47 -14 -75 -25 -56 -22
-55 -14 3 13 20 10 51 17 67 17 26 -1 27 -1 5 -5z m9100 -23 c-8 -5 -19 -10
-25 -10 -5 0 -3 5 5 10 8 5 20 10 25 10 6 0 3 -5 -5 -10z m-10333 -82 c-2 -18
-4 -6 -4 27 0 33 2 48 4 33 2 -15 2 -42 0 -60z m10268 52 c-3 -5 -12 -10 -18
-10 -7 0 -6 4 3 10 19 12 23 12 15 0z m-10248 -182 c-2 -35 -3 -9 -3 57 0 66
1 94 3 63 2 -32 2 -86 0 -120z m668 143 c11 -14 15 -21 8 -17 -9 5 -13 -15
-15 -75 -2 -50 -7 -84 -14 -86 -8 -3 -11 12 -9 44 1 26 3 75 4 107 0 33 2 57
4 55 1 -2 11 -15 22 -28z m245 25 c0 -2 -8 -10 -17 -17 -16 -13 -17 -12 -4 4
13 16 21 21 21 13z m10116 -59 c28 -10 51 -23 51 -30 0 -10 -7 -12 -26 -6 -14
4 -46 13 -71 19 -25 7 -53 16 -62 21 -12 6 -18 5 -18 -1 0 -7 -6 -8 -19 0 -27
14 -97 13 -161 -4 -69 -18 -78 -12 -14 8 63 20 247 16 320 -7z m-11079 -89
c-2 -18 -4 -4 -4 32 0 36 2 50 4 33 2 -18 2 -48 0 -65z m763 42 c0 -21 -4 -42
-10 -45 -6 -4 -10 13 -10 45 0 32 4 49 10 45 6 -3 10 -24 10 -45z m-1129 17
c-10 -9 -11 -8 -5 6 3 10 9 15 12 12 3 -3 0 -11 -7 -18z m1163 -15 c-4 -12
-10 -22 -15 -22 -11 0 -12 44 -2 54 12 11 23 -9 17 -32z m10366 8 c0 -5 -2
-10 -4 -10 -3 0 -8 5 -11 10 -3 6 -1 10 4 10 6 0 11 -4 11 -10z m-6246 -27
c-10 -40 -14 -41 -14 -5 0 18 5 32 10 32 6 0 8 -11 4 -27z m78 -58 c6 -12 -4
-6 -26 14 -20 19 -36 39 -36 45 0 13 49 -34 62 -59z m173 -41 c13 -3 42 -25
64 -49 37 -40 43 -62 32 -102 -1 -2 -16 6 -33 17 -36 22 -74 25 -98 10 -13 -9
-13 -10 0 -10 8 -1 2 -7 -15 -14 -41 -19 -80 -62 -64 -71 7 -5 18 0 28 12 37
48 107 57 166 22 32 -19 73 -75 62 -85 -2 -3 -10 9 -17 26 -7 18 -18 29 -26
26 -7 -3 -15 2 -18 11 -4 9 -9 13 -12 10 -4 -3 -13 1 -22 9 -10 10 -17 12 -21
5 -4 -6 -19 -8 -35 -5 -20 3 -26 1 -20 -7 5 -8 2 -10 -8 -6 -19 7 -67 -44 -91
-97 -13 -28 -16 -51 -11 -82 3 -24 10 -42 14 -39 5 3 6 -3 4 -12 -3 -10 2 -27
11 -38 9 -11 13 -13 10 -5 -4 8 3 3 16 -12 53 -59 114 -64 174 -16 36 30 38
30 24 8 -42 -65 -125 -88 -186 -50 -39 23 -61 56 -84 123 -15 43 -18 47 -18
23 -2 -52 23 -110 65 -154 41 -42 45 -44 93 -41 33 3 47 1 40 -6 -5 -5 -34
-10 -64 -10 -44 0 -60 5 -92 31 -37 29 -93 122 -93 154 0 9 10 27 23 40 37 40
46 71 25 92 -13 13 -17 31 -16 69 1 28 6 53 10 55 4 3 8 9 8 14 0 6 -16 1 -35
-10 l-36 -20 12 22 c6 13 19 31 28 42 15 18 15 18 -24 0 -22 -10 -50 -27 -63
-38 l-23 -20 13 30 c45 103 124 164 213 164 43 0 46 1 39 23 -15 48 -13 50 6
10 13 -28 29 -45 45 -49z m-241 16 c4 -25 3 -31 -4 -20 -5 8 -10 26 -10 39 0
32 6 24 14 -19z m-180 -12 c-6 -9 37 -90 65 -122 11 -13 12 -18 3 -15 -8 3
-34 42 -59 88 -36 64 -41 80 -25 70 11 -7 18 -17 16 -21z m-5324 -23 c5 3 7
-4 5 -15 -2 -11 0 -20 6 -20 5 0 9 6 9 12 0 7 9 -4 20 -25 11 -20 19 -40 19
-44 -3 -20 2 -41 15 -59 12 -15 11 -2 -4 66 -10 47 -16 87 -14 89 2 2 10 -1
18 -8 8 -7 25 -9 40 -5 21 5 24 9 15 20 -18 22 1 16 58 -16 55 -31 110 -100
98 -120 -5 -8 -12 -7 -23 3 -10 8 -26 17 -37 21 -11 3 -30 22 -43 42 -13 20
-26 33 -29 30 -4 -3 1 -14 9 -23 9 -10 13 -24 11 -31 -3 -7 1 -20 8 -29 8 -8
12 -28 11 -44 -3 -23 2 -31 22 -39 14 -5 26 -14 26 -19 0 -5 -18 -2 -40 6 -22
9 -40 20 -40 25 0 12 -58 10 -65 -2 -4 -6 -6 -50 -6 -98 0 -146 -1 -142 22
-142 16 0 19 -4 13 -22 -10 -34 -23 -56 -24 -40 0 7 -4 10 -10 7 -6 -4 -10 11
-11 37 l0 43 -16 -38 c-9 -23 -21 -36 -28 -33 -8 3 -18 -7 -25 -22 -14 -34
-76 -82 -105 -82 -12 0 -32 11 -44 24 l-23 24 34 11 c18 6 51 27 73 46 l40 35
-44 -24 c-32 -18 -53 -23 -77 -19 -25 4 -34 2 -34 -8 0 -8 -5 -6 -13 6 -26 38
-50 174 -28 161 5 -3 44 -2 88 2 68 7 86 5 129 -13 50 -20 50 -20 42 -54 -5
-18 -7 -35 -5 -38 7 -6 37 130 37 164 0 22 -2 25 -10 13 -5 -8 -10 -25 -10
-37 0 -21 -5 -23 -46 -23 -55 0 -84 14 -84 40 0 14 -16 27 -55 45 -30 15 -55
33 -55 41 0 9 -5 12 -11 8 -13 -8 -4 43 16 93 11 26 18 31 37 26 13 -3 30 -11
38 -17 8 -7 35 -25 59 -40 l45 -29 -23 29 c-49 65 -56 77 -43 82 22 7 13 19
-19 26 -26 5 -29 8 -19 21 10 13 17 12 51 -6 22 -11 44 -17 49 -14z m250 5 c0
-11 -4 -20 -10 -20 -5 0 -10 9 -10 20 0 11 5 20 10 20 6 0 10 -9 10 -20z
m5163 -7 c15 -7 27 -15 27 -18 0 -5 -92 34 -100 42 -8 8 41 -7 73 -24z m-1243
-9 c0 -2 -9 0 -20 6 -11 6 -20 13 -20 16 0 2 9 0 20 -6 11 -6 20 -13 20 -16z
m45 16 c3 -5 1 -10 -4 -10 -6 0 -11 5 -11 10 0 6 2 10 4 10 3 0 8 -4 11 -10z
m-4404 -32 c-5 -13 -8 -25 -8 -28 0 -3 -5 -21 -11 -40 -6 -19 -18 -79 -26
-134 -8 -54 -17 -101 -20 -104 -3 -3 -6 24 -6 59 0 71 17 149 50 222 21 48 37
66 21 25z m4394 -8 c3 -5 2 -10 -4 -10 -5 0 -13 5 -16 10 -3 6 -2 10 4 10 5 0
13 -4 16 -10z m-4720 -41 c4 -10 22 -37 41 -60 41 -49 42 -59 9 -59 -14 0 -25
-4 -25 -9 0 -6 -12 -6 -31 -1 -19 6 -38 6 -49 0 -10 -5 -19 -7 -22 -5 -2 2 -8
-16 -14 -40 -5 -24 -6 -42 -2 -39 4 3 5 -2 2 -10 -4 -11 -19 -16 -48 -16 -64
0 -86 9 -86 35 0 14 -9 26 -26 34 -16 7 -24 17 -21 25 3 8 -1 17 -9 20 -8 3
-14 12 -14 21 0 8 -4 15 -9 15 -13 0 -23 48 -14 65 7 11 14 11 43 -2 19 -9 39
-15 43 -14 5 1 6 -3 3 -8 -4 -5 17 -22 46 -36 29 -15 61 -33 70 -42 15 -13 16
-13 11 6 -3 13 -1 21 6 21 7 0 9 -4 6 -10 -3 -5 1 -10 11 -10 14 0 16 6 10 38
-3 20 -9 53 -12 72 l-6 36 41 -4 c28 -3 42 -9 46 -23z m-360 -64 c-8 -38 -15
-97 -16 -130 -1 -33 -6 -69 -11 -80 -15 -36 0 178 17 233 9 30 18 52 20 50 1
-1 -3 -34 -10 -73z m5352 53 c-3 -8 -6 -5 -6 6 -1 11 2 17 5 13 3 -3 4 -12 1
-19z m-4100 -14 c-3 -3 -12 -4 -19 -1 -8 3 -5 6 6 6 11 1 17 -2 13 -5z m3978
-39 c25 -22 23 -22 -17 5 -27 17 -48 33 -48 36 0 8 33 -13 65 -41z m-4075 -45
c0 -9 -6 -17 -13 -17 -9 0 -14 11 -13 28 1 21 4 25 14 17 6 -6 12 -18 12 -28z
m2671 9 c88 -12 218 -56 281 -96 21 -12 40 -23 43 -23 18 0 154 -112 210 -173
356 -384 431 -1028 176 -1521 -31 -59 -66 -119 -78 -132 -12 -13 -19 -24 -16
-24 3 0 0 -7 -7 -15 -7 -8 -17 -12 -23 -8 -6 4 -7 1 -3 -6 5 -8 -10 -29 -41
-58 -26 -25 -47 -50 -45 -55 1 -4 -7 -8 -17 -8 -11 0 -29 -12 -41 -27 -12 -16
-19 -21 -15 -13 6 13 5 13 -7 0 -7 -8 -32 -27 -55 -43 -24 -15 -43 -32 -43
-37 0 -6 -6 -10 -14 -10 -7 0 -25 -9 -39 -20 -14 -11 -32 -20 -41 -20 -9 0
-16 -4 -16 -9 0 -11 -181 -69 -255 -81 -67 -11 -184 -6 -212 8 -10 5 -42 12
-71 15 -29 3 -62 13 -74 22 -13 8 -29 15 -37 15 -7 0 -20 8 -28 18 -8 9 -11
11 -8 4 4 -8 -10 -3 -31 11 -22 13 -47 23 -57 21 -9 -1 -15 2 -11 7 3 5 -4 9
-16 9 -12 0 -19 4 -16 9 5 8 -42 36 -56 33 -4 -1 -5 4 -2 12 3 9 -5 16 -22 20
-14 4 -24 9 -21 12 7 7 -30 44 -43 44 -5 0 -10 5 -10 10 0 6 -5 10 -11 10 -5
0 -7 -5 -3 -12 4 -7 3 -8 -5 -4 -6 4 -9 12 -6 17 4 5 1 9 -5 9 -6 0 -8 5 -5
10 4 6 3 10 -2 9 -20 -4 -34 2 -32 14 3 24 -1 38 -10 33 -8 -5 -23 10 -74 74
-27 33 -66 108 -60 114 3 3 0 6 -7 6 -7 0 -11 3 -7 6 3 4 -5 22 -18 42 -13 19
-21 40 -18 45 3 5 0 13 -6 17 -7 4 -13 17 -14 28 -1 12 -5 22 -10 22 -5 0 -7
7 -3 15 3 8 1 15 -3 15 -5 0 -24 60 -41 133 -29 119 -32 147 -33 287 0 169 20
301 70 455 34 105 107 255 168 339 63 89 145 177 156 170 5 -3 8 -1 7 5 -4 15
92 92 106 84 6 -3 8 -3 4 2 -15 16 113 91 135 79 7 -4 9 -3 4 1 -12 14 117 64
157 61 20 -2 36 1 36 6 0 6 6 8 13 6 6 -3 28 1 47 8 44 16 124 17 231 3z
m2367 4 c-15 -2 -42 -2 -60 0 -18 2 -6 4 27 4 33 0 48 -2 33 -4z m-808 -81 c6
-7 -45 24 -77 47 -12 9 -23 19 -23 23 0 7 87 -54 100 -70z m743 25 c34 -30 71
-59 82 -65 13 -7 15 -12 6 -12 -8 0 -42 23 -75 52 -84 71 -91 78 -82 78 4 0
36 -24 69 -53z m-5093 -7 c0 -13 -17 -13 -25 0 -4 6 -11 8 -16 5 -5 -3 -6 1
-3 9 5 12 11 13 25 5 10 -5 19 -14 19 -19z m-699 -3 c-10 -9 -11 -8 -5 6 3 10
9 15 12 12 3 -3 0 -11 -7 -18z m-31 -22 c0 -19 -4 -35 -8 -35 -4 0 -6 16 -4
35 2 19 6 35 8 35 2 0 4 -16 4 -35z m6395 12 c8 -12 16 -14 20 -8 3 6 12 11
18 11 7 0 4 -5 -6 -11 -12 -7 -16 -17 -12 -30 13 -41 7 -80 -19 -119 -24 -37
-31 -41 -62 -38 -19 2 -34 6 -34 11 0 4 -9 16 -20 27 -35 35 -24 135 18 166
24 17 82 12 97 -9z m-1185 -103 c0 -3 -27 16 -60 41 -33 25 -60 48 -60 51 0 3
27 -16 60 -41 33 -25 60 -48 60 -51z m-4157 61 c4 -8 2 -17 -3 -20 -6 -4 -10
3 -10 14 0 25 6 27 13 6z m5187 0 c0 -8 -4 -15 -10 -15 -5 0 -7 7 -4 15 4 8 8
15 10 15 2 0 4 -7 4 -15z m-202 -173 c23 -70 91 -151 145 -171 37 -14 123 -14
150 0 12 6 33 21 46 33 23 20 23 20 13 1 -17 -33 -54 -61 -104 -80 -76 -28
-160 0 -226 76 -39 44 -78 129 -85 184 -3 22 -3 34 0 28 10 -28 34 -13 32 20
-4 73 5 86 11 17 4 -41 12 -90 18 -108z m-6043 106 c-4 -24 -12 -50 -17 -58
-8 -12 -8 -11 -4 3 3 10 6 36 6 58 0 21 5 39 11 39 7 0 8 -14 4 -42z m-90 15
c19 -9 35 -22 35 -28 0 -45 -173 -109 -219 -81 -12 8 -26 94 -17 104 7 7 82
19 133 21 18 0 48 -7 68 -16z m955 7 c0 -5 -7 -10 -15 -10 -8 0 -15 5 -15 10
0 6 7 10 15 10 8 0 15 -4 15 -10z m5197 -22 c-3 -7 -5 -2 -5 12 0 14 2 19 5
13 2 -7 2 -19 0 -25z m-5703 -83 c6 -28 5 -29 -9 -11 -8 11 -15 36 -14 55 1
32 2 33 8 11 4 -14 11 -38 15 -55z m5526 70 c0 -6 -56 -35 -67 -35 -4 1 8 9
27 20 39 22 40 22 40 15z m-4573 -27 c-3 -8 -6 -5 -6 6 -1 11 2 17 5 13 3 -3
4 -12 1 -19z m80 -100 c-2 -24 -4 -5 -4 42 0 47 2 66 4 43 2 -24 2 -62 0 -85z
m4691 64 c41 -135 162 -208 263 -158 18 9 34 14 37 12 8 -8 -62 -46 -96 -52
-43 -8 -119 21 -155 60 -52 55 -109 194 -74 180 8 -3 19 -22 25 -42z m-787 21
c13 -16 12 -17 -3 -4 -10 7 -18 15 -18 17 0 8 8 3 21 -13z m-5604 -15 c-3 -8
-6 -5 -6 6 -1 11 2 17 5 13 3 -3 4 -12 1 -19z m334 -65 c-6 -13 -15 -22 -20
-18 -5 3 -12 -5 -14 -17 -3 -13 -3 -5 -2 17 2 22 4 50 4 63 l1 22 21 -21 c18
-18 19 -25 10 -46z m5320 40 c13 -16 12 -17 -3 -4 -10 7 -18 15 -18 17 0 8 8
3 21 -13z m6862 -4 c82 -27 133 -58 202 -120 189 -173 305 -488 305 -829 0
-212 -24 -349 -93 -525 -35 -92 -55 -127 -68 -119 -5 3 -7 -1 -4 -8 6 -15 -59
-111 -69 -101 -3 3 -6 -1 -6 -10 0 -9 -5 -19 -12 -23 -7 -5 -8 -3 -3 6 4 7
-19 -9 -51 -36 -135 -109 -295 -147 -434 -101 -19 6 -43 10 -54 8 -12 -2 -16
1 -11 9 6 9 2 9 -15 0 -12 -7 -20 -8 -17 -3 3 5 -4 15 -16 23 -21 12 -21 12
-7 -5 14 -17 14 -18 -8 -6 -12 7 -20 17 -16 23 4 6 3 8 -3 5 -14 -9 -55 22
-47 35 4 7 2 8 -4 4 -18 -11 -115 98 -163 183 -91 157 -137 312 -159 526 -12
117 -8 203 17 355 59 364 250 638 497 716 64 20 168 17 239 -7z m-6385 -9 c39
-11 83 -20 97 -20 14 0 25 -4 25 -10 0 -5 -3 -10 -6 -10 -11 0 -199 52 -203
56 -9 8 16 3 87 -16z m472 -8 c0 -15 -2 -15 -10 -2 -13 20 -13 33 0 25 6 -3
10 -14 10 -23z m-6390 -31 c-15 -56 -44 -74 -95 -60 -35 10 -37 13 -22 24 10
7 27 20 40 29 33 25 82 54 85 51 2 -2 -2 -21 -8 -44z m6427 20 c0 -11 -5 -18
-9 -15 -4 3 -5 11 -1 19 7 21 12 19 10 -4z m-5717 -5 c0 -2 -7 -9 -15 -16 -13
-11 -14 -10 -9 4 5 14 24 23 24 12z m9155 -15 c-3 -6 -11 -11 -17 -11 -6 0 -6
6 2 15 14 17 26 13 15 -4z m-4335 -16 c13 -14 21 -25 18 -25 -2 0 -15 11 -28
25 -13 14 -21 25 -18 25 2 0 15 -11 28 -25z m-4126 -11 c3 -8 2 -12 -4 -9 -6
3 -10 10 -10 16 0 14 7 11 14 -7z m11886 -8 c0 -9 -30 -14 -35 -6 -4 6 3 10
14 10 12 0 21 -2 21 -4z m47 -29 c13 5 48 -55 39 -65 -3 -3 -6 0 -6 8 0 9 -4
9 -12 2 -7 -5 -38 -13 -68 -17 -30 -4 -61 -12 -68 -17 -6 -6 -26 -8 -42 -4
-17 3 -30 2 -30 -3 0 -5 -11 -11 -25 -14 -18 -3 -29 1 -35 14 -13 23 -13 39 0
39 6 0 9 -5 8 -12 -6 -25 29 -17 66 14 44 38 108 69 86 43 -11 -13 -10 -14 4
-9 9 3 16 12 16 19 0 10 7 12 28 6 15 -4 32 -6 39 -4z m-11936 -135 c-8 -12
-10 6 -9 63 l0 80 9 -63 c6 -40 6 -69 0 -80z m11769 114 c0 -3 -4 -8 -10 -11
-5 -3 -10 -1 -10 4 0 6 5 11 10 11 6 0 10 -2 10 -4z m-7506 -24 c3 -5 -1 -9
-9 -9 -8 0 -12 4 -9 9 3 4 7 8 9 8 2 0 6 -4 9 -8z m-4527 -79 c-2 -16 -4 -5
-4 22 0 28 2 40 4 28 2 -13 2 -35 0 -50z m4998 47 c-3 -5 -11 -10 -16 -10 -6
0 -7 5 -4 10 3 6 11 10 16 10 6 0 7 -4 4 -10z m-6065 -25 c0 -16 -6 -25 -16
-25 -11 0 -14 5 -10 16 3 9 6 20 6 25 0 5 5 9 10 9 6 0 10 -11 10 -25z m650 5
c0 -11 -7 -20 -15 -20 -13 0 -13 3 -3 20 7 11 14 20 15 20 2 0 3 -9 3 -20z
m5011 -6 l24 -27 -27 18 c-16 9 -28 21 -28 26 0 14 5 11 31 -17z m366 10 c-3
-3 -12 -4 -19 -1 -8 3 -5 6 6 6 11 1 17 -2 13 -5z m3773 -25 c0 -11 -4 -17
-10 -14 -5 3 -10 15 -10 26 0 11 5 17 10 14 6 -3 10 -15 10 -26z m-3865 5
c-27 -7 -57 -13 -65 -13 -21 1 70 27 95 27 11 0 -2 -6 -30 -14z m-220 -34 c10
-11 16 -20 13 -20 -3 0 -13 9 -23 20 -10 11 -16 20 -13 20 3 0 13 -9 23 -20z
m610 -10 c-9 -16 -18 -30 -21 -30 -2 0 2 14 11 30 9 17 18 30 21 30 2 0 -2
-13 -11 -30z m6795 5 c0 -19 -30 -19 -56 0 -18 13 -17 14 19 15 26 0 37 -4 37
-15z m109 9 c57 -6 61 -8 61 -33 1 -25 1 -25 15 -7 13 17 15 18 15 3 0 -16
-10 -21 -36 -18 -6 0 -28 -8 -50 -20 -21 -11 -30 -17 -19 -14 11 3 16 2 11 -2
-4 -4 -18 -8 -31 -8 -19 -1 -21 2 -12 16 9 14 5 22 -21 44 -54 45 -46 50 67
39z m-12249 -38 c0 -3 -4 -8 -10 -11 -5 -3 -10 -1 -10 4 0 6 5 11 10 11 6 0
10 -2 10 -4z m-940 -10 c0 -3 -4 -8 -10 -11 -5 -3 -10 -1 -10 4 0 6 5 11 10
11 6 0 10 -2 10 -4z m30 -6 c0 -5 -5 -10 -11 -10 -5 0 -7 5 -4 10 3 6 8 10 11
10 2 0 4 -4 4 -10z m6060 -4 c0 -2 -8 -10 -17 -17 -16 -13 -17 -12 -4 4 13 16
21 21 21 13z m-5631 -50 c0 -20 -1 -20 -10 3 -6 15 -15 21 -24 17 -8 -3 -15
-1 -15 3 0 14 24 19 38 8 6 -5 12 -19 11 -31z m5322 23 l24 -20 -30 17 c-39
24 -40 24 -28 24 6 0 21 -9 34 -21z m-5245 -39 c1 -35 0 -37 -3 -10 -5 43 -20
61 -33 40 -5 -8 -10 -10 -10 -4 0 16 12 25 30 22 11 -2 15 -16 16 -48z m82 6
c2 -21 0 -46 -4 -55 -4 -9 -7 -19 -6 -23 1 -4 -5 -5 -14 -1 -15 5 -15 7 0 15
11 6 16 23 16 50 0 35 -2 40 -20 35 -20 -5 -26 3 -13 17 18 17 38 -1 41 -38z
m116 28 c3 -9 6 -25 5 -37 -1 -20 -2 -20 -8 3 -12 42 -36 31 -39 -19 -4 -58 3
-77 23 -61 12 10 15 9 15 -4 0 -12 -7 -16 -22 -14 -20 3 -23 10 -26 55 -3 56
10 93 32 93 8 0 17 -7 20 -16z m91 -27 c-13 -85 -25 -116 -19 -49 6 58 4 64
-15 69 -31 8 -25 23 10 23 30 0 30 0 24 -43z m78 12 c4 -17 3 -19 -6 -10 -17
17 -37 13 -38 -6 0 -12 -2 -13 -6 -5 -6 15 14 42 32 42 7 0 15 -10 18 -21z
m5147 17 c0 -2 -8 -10 -17 -17 -16 -13 -17 -12 -4 4 13 16 21 21 21 13z
m-5619 -89 c15 -4 19 -13 17 -44 -1 -36 -1 -37 -5 -5 -5 37 -29 44 -36 10 -2
-13 -4 9 -4 47 0 39 2 54 4 34 3 -26 10 -38 24 -42z m5404 53 c3 -6 -1 -7 -9
-4 -18 7 -21 14 -7 14 6 0 13 -4 16 -10z m-5875 -10 c0 -5 -2 -10 -4 -10 -3 0
-8 5 -11 10 -3 6 -1 10 4 10 6 0 11 -4 11 -10z m917 -98 c-14 -21 -27 -44 -30
-52 -5 -13 -6 -13 -6 0 -1 8 10 33 24 55 13 22 25 54 26 70 2 30 2 30 6 -3 3
-24 -3 -44 -20 -70z m4994 81 c13 -16 12 -17 -3 -4 -10 7 -18 15 -18 17 0 8 8
3 21 -13z m-4041 -3 c-20 -13 -33 -13 -25 0 3 6 14 10 23 10 15 0 15 -2 2 -10z
m-1317 -42 c14 2 17 -5 15 -45 -1 -42 -2 -43 -5 -12 -3 26 -10 38 -24 42 -13
4 -19 13 -18 34 1 28 1 28 8 3 5 -16 13 -24 24 -22z m5433 -9 c3 -6 -5 -3 -20
6 -14 10 -26 19 -26 22 0 7 39 -17 46 -28z m-4033 4 c80 -29 63 -32 -115 -20
-33 2 -38 0 -39 -20 -1 -13 -2 -29 -3 -35 -1 -9 30 -17 94 -24 52 -6 84 -13
70 -14 -21 -2 -20 -4 10 -10 19 -4 -18 -6 -85 -5 -66 2 -129 6 -139 11 -19 7
-19 8 0 15 16 6 14 8 -14 15 -23 5 -31 11 -28 21 4 8 6 21 6 29 0 9 12 14 36
14 23 0 33 4 28 11 -19 32 101 40 179 12z m4081 -42 c-2 -3 -12 3 -22 13 -16
17 -16 18 5 5 12 -7 20 -15 17 -18z m-7039 9 c3 -5 1 -10 -4 -10 -6 0 -11 5
-11 10 0 6 2 10 4 10 3 0 8 -4 11 -10z m-90 -10 c4 -6 -10 -10 -34 -10 -34 0
-41 -3 -41 -20 0 -16 -6 -20 -30 -18 -16 1 -30 8 -30 14 0 7 -8 15 -17 17 -10
3 -5 5 12 6 17 1 37 6 45 11 20 13 87 13 95 0z m1932 -22 c-3 -7 -5 -2 -5 12
0 14 2 19 5 13 2 -7 2 -19 0 -25z m-64 -19 c12 -7 23 -13 25 -14 1 -1 -7 -55
-19 -121 -11 -65 -22 -177 -24 -248 -3 -127 -8 -147 -40 -145 -5 0 -4 3 3 6 6
2 12 8 12 13 0 4 -6 8 -12 7 -53 -2 -51 -7 -44 131 3 70 10 152 16 182 5 30
14 88 21 128 11 76 19 83 62 61z m442 1 c3 -5 1 -10 -4 -10 -6 0 -11 5 -11 10
0 6 2 10 4 10 3 0 8 -4 11 -10z m4900 -8 c-3 -3 -11 0 -18 7 -9 10 -8 11 6 5
10 -3 15 -9 12 -12z m7529 -27 c3 -9 0 -15 -8 -15 -7 0 -19 -18 -26 -41 -8
-22 -17 -42 -22 -45 -12 -8 -10 61 4 91 12 28 43 34 52 10z m-12147 -4 c275
-1 257 9 244 -130 -5 -51 -10 -94 -12 -96 -3 -2 -133 0 -289 5 -157 5 -365 10
-462 11 -145 1 -175 4 -171 15 6 17 15 18 31 2 9 -9 12 -9 12 -1 0 7 -8 18
-19 25 -17 12 -18 20 -9 73 12 82 20 83 12 2 -6 -61 -4 -67 13 -67 10 0 24 -5
30 -11 9 -9 16 -8 27 4 22 22 20 30 -5 22 -15 -5 -19 -4 -15 4 4 6 16 11 27
11 14 0 19 7 19 24 0 14 4 27 9 30 4 3 11 20 15 37 5 27 9 31 31 27 14 -3 25
-2 25 3 0 4 -21 10 -47 12 -27 2 31 3 127 1 96 -1 279 -3 407 -3z m-2446 -32
c-5 -13 -10 -19 -10 -12 -1 15 10 45 15 40 3 -2 0 -15 -5 -28z m14478 -50 c-8
-4 -16 -5 -19 -2 -3 3 1 8 8 10 6 3 13 14 13 26 2 20 2 20 6 -2 3 -13 -1 -27
-8 -32z m-12899 -4 l-8 -40 -1 36 c0 20 2 39 6 42 11 11 11 4 3 -38z m6563 38
c-13 -2 -35 -2 -50 0 -16 2 -5 4 22 4 28 0 40 -2 28 -4z m-8156 -65 c-3 -7 -5
-2 -5 12 0 14 2 19 5 13 2 -7 2 -19 0 -25z m1570 0 c-3 -8 -6 -5 -6 6 -1 11 2
17 5 13 3 -3 4 -12 1 -19z m313 6 c0 -8 -5 -12 -10 -9 -6 4 -8 11 -5 16 9 14
15 11 15 -7z m-376 0 c9 -3 16 -12 16 -20 0 -15 -18 -18 -44 -8 -13 5 -14 9
-5 20 13 16 12 16 33 8z m76 -40 c0 -2 -12 -4 -27 -4 -21 0 -24 3 -14 9 13 8
41 5 41 -5z m-497 -11 c-7 -2 -19 -2 -25 0 -7 3 -2 5 12 5 14 0 19 -2 13 -5z
m432 -5 c3 -3 -5 -8 -19 -10 -14 -3 -23 -2 -20 3 2 4 -10 10 -28 12 -18 2 -12
3 14 2 26 0 50 -4 53 -7z m13065 -3 c0 -2 -7 -5 -15 -9 -9 -3 -15 0 -15 9 0 9
6 12 15 9 8 -4 15 -7 15 -9z m-14594 -35 c1 -17 -2 -30 -6 -30 -4 0 -8 16 -7
35 1 41 10 37 13 -5z m1461 15 c7 -2 34 -1 60 3 53 9 83 5 83 -9 0 -11 -397
-13 -403 -1 -3 4 45 6 106 5 78 -2 107 0 97 8 -11 7 -7 8 15 3 17 -3 35 -7 42
-9z m-297 -5 c-8 -5 -22 -9 -30 -9 -10 0 -8 3 5 9 27 12 43 12 25 0z m-554
-15 c-11 -8 -22 -12 -25 -9 -6 6 19 24 34 24 6 -1 1 -7 -9 -15z m454 -29 c0
-3 -4 -8 -10 -11 -5 -3 -10 -1 -10 4 0 6 5 11 10 11 6 0 10 -2 10 -4z m438 -3
c-57 -3 -78 -8 -80 -18 -3 -13 -7 -13 -31 0 -19 10 -68 15 -150 18 -67 1 -18
3 108 3 127 0 195 -2 153 -3z m775 -8 l447 -7 0 -109 c0 -115 5 -125 45 -95
11 8 25 12 32 9 7 -3 13 1 13 10 0 9 14 16 39 20 23 3 51 16 68 31 15 14 31
26 34 26 4 0 9 9 12 21 4 14 10 18 18 13 9 -5 9 -9 2 -11 -6 -2 -9 -12 -6 -21
4 -15 -21 -139 -29 -148 -2 -2 -83 1 -179 6 -240 13 -696 30 -821 30 -57 0
-110 5 -118 11 -12 9 -12 10 4 5 19 -6 46 9 46 25 0 5 -9 9 -20 9 -11 0 -20 5
-20 10 0 6 11 10 25 10 27 0 34 15 10 24 -10 3 -15 19 -15 46 0 25 -5 40 -12
41 -7 1 -2 5 12 9 l25 8 -28 1 c-16 1 -26 5 -23 10 3 5 -3 11 -13 14 -20 5
-31 -10 -31 -43 0 -10 -5 -22 -10 -25 -10 -6 -8 11 5 65 2 8 4 16 4 18 1 2 9
1 19 -2 9 -2 218 -8 465 -11z m12322 -30 c16 -16 25 -37 25 -56 0 -27 -3 -30
-26 -27 -24 3 -26 8 -30 56 -2 28 -2 52 0 52 3 0 17 -11 31 -25z m-14608 -57
c-2 -13 -4 -3 -4 22 0 25 2 35 4 23 2 -13 2 -33 0 -45z m1406 55 c-7 -2 -19
-2 -25 0 -7 3 -2 5 12 5 14 0 19 -2 13 -5z m-17 -50 c-10 -10 -19 5 -10 18 6
11 8 11 12 0 2 -7 1 -15 -2 -18z m8694 -13 c0 -5 -4 -10 -10 -10 -5 0 -10 5
-10 10 0 6 5 10 10 10 6 0 10 -4 10 -10z m-64 -32 c-18 -26 -22 -17 -5 14 6
11 13 17 16 15 3 -3 -2 -16 -11 -29z m-8229 -50 c-3 -7 -5 -2 -5 12 0 14 2 19
5 13 2 -7 2 -19 0 -25z m-1767 6 c0 -8 -4 -12 -10 -9 -5 3 -10 10 -10 16 0 5
5 9 10 9 6 0 10 -7 10 -16z m7812 -4 c18 -11 29 -20 23 -20 -5 0 -23 9 -40 20
-39 26 -25 26 17 0z m6778 11 c0 -12 -20 -25 -27 -18 -7 7 6 27 18 27 5 0 9
-4 9 -9z m-13233 -48 c-20 -2 -52 -2 -70 0 -17 2 0 4 38 4 39 0 53 -2 32 -4z
m106 0 c-7 -2 -19 -2 -25 0 -7 3 -2 5 12 5 14 0 19 -2 13 -5z m-876 -87 c-9
-23 -36 -19 -46 6 -11 30 -2 61 15 54 8 -3 14 0 15 7 1 7 6 -2 11 -20 6 -18 8
-39 5 -47z m-837 37 c0 -22 4 -25 30 -21 42 6 38 -10 -4 -18 -52 -9 -91 3 -93
29 -2 25 10 35 43 35 19 0 24 -6 24 -25z m2020 -55 c0 -13 -5 -18 -17 -16 -10
2 -17 10 -15 16 1 7 -2 12 -7 12 -17 0 -18 34 -2 53 14 16 15 16 28 -14 7 -17
13 -40 13 -51z m1113 36 c30 -4 47 -11 47 -20 0 -17 -5 -17 -55 1 -22 8 -65
14 -96 15 -54 0 -57 -1 -62 -27 -3 -16 -3 -31 0 -35 2 -5 51 -8 109 -8 64 0
104 -4 104 -10 0 -15 -47 -31 -89 -30 -20 0 -55 1 -79 1 -54 0 -128 33 -135
61 -3 11 -1 32 4 46 l10 25 97 -7 c53 -3 118 -9 145 -12z m5167 6 c8 -5 11
-10 5 -10 -5 0 -17 5 -25 10 -8 5 -10 10 -5 10 6 0 17 -5 25 -10z m4194 -39
c3 -5 -363 -11 -852 -15 -471 -3 -1287 -12 -1812 -19 -746 -10 -958 -10 -970
-1 -8 7 -28 10 -45 8 l-30 -4 28 11 c18 7 36 8 48 3 11 -5 190 -6 402 -1 933
18 3223 31 3231 18z m-3866 -18 c-10 -2 -26 -2 -35 0 -10 3 -2 5 17 5 19 0 27
-2 18 -5z m137 -3 c15 -6 6 -9 -33 -9 -33 -1 -51 3 -47 9 7 12 52 12 80 0z
m3745 -10 c0 -7 -244 -10 -712 -10 -628 0 -1504 -8 -2603 -24 -202 -3 -311 -1
-268 4 74 8 1740 30 2568 33 264 1 600 3 748 5 173 1 267 -2 267 -8z m-3762
-27 c-10 -2 -26 -2 -35 0 -10 3 -2 5 17 5 19 0 27 -2 18 -5z m59 1 c-3 -3 -12
-4 -19 -1 -8 3 -5 6 6 6 11 1 17 -2 13 -5z m3689 -36 c-11 -15 -12 -25 -5 -34
7 -8 5 -17 -6 -27 -13 -14 -66 -16 -388 -16 -736 -1 -2335 -25 -2827 -42 -162
-5 -315 -10 -340 -11 -25 0 -51 -5 -58 -11 -10 -8 -10 -5 -4 14 7 19 19 25 58
31 43 6 588 24 907 29 59 1 110 7 114 12 4 6 -14 7 -48 4 -30 -4 -273 -9 -541
-13 -448 -6 -488 -5 -488 10 0 9 1 16 3 17 1 0 166 5 367 9 201 5 496 14 655
19 160 5 711 11 1225 13 514 2 998 5 1075 9 77 3 180 6 228 7 l88 2 -15 -22z
m-9460 -45 c-3 -8 -6 -19 -6 -24 0 -19 -31 -8 -39 14 -6 16 -4 24 8 28 23 9
43 -1 37 -18z m4130 -63 c29 0 34 -3 34 -24 0 -28 18 -45 43 -40 35 5 87 35
87 49 0 18 129 20 280 5 216 -22 486 -31 844 -31 209 1 377 -1 374 -4 -3 -3
-92 -6 -197 -6 -106 0 -202 -4 -215 -9 -15 -5 -27 -5 -34 2 -8 8 -28 7 -69 -2
-32 -7 -74 -12 -93 -11 -19 0 -48 -4 -65 -9 -28 -9 -28 -10 8 -4 53 7 76 -2
69 -28 -3 -15 -1 -19 9 -16 8 3 13 12 11 22 -4 21 15 21 20 0 2 -11 17 -17 52
-20 31 -2 53 -10 62 -21 10 -14 15 -16 25 -5 18 17 42 15 35 -3 -3 -9 0 -15 9
-15 8 0 15 8 15 18 1 16 1 16 14 0 15 -20 41 -24 51 -8 10 16 36 12 52 -7 11
-14 16 -15 20 -5 4 10 8 10 20 1 12 -10 16 -10 24 2 8 12 11 12 22 -2 12 -16
50 -19 63 -6 13 12 24 7 25 -10 1 -17 2 -17 6 0 5 19 24 22 39 7 6 -6 48 -11
95 -13 52 -1 89 -7 98 -15 11 -10 16 -10 27 5 13 17 15 17 25 1 12 -21 39 -24
39 -5 1 7 6 5 14 -5 17 -23 26 -23 26 2 0 11 5 20 10 20 6 0 10 -6 10 -14 0
-16 27 -29 35 -16 3 4 0 10 -6 12 -7 2 5 4 25 5 29 1 39 -4 46 -20 8 -21 9
-21 9 -2 1 11 -6 33 -14 48 -8 15 -10 25 -5 22 5 -3 19 -26 32 -51 12 -26 28
-49 35 -51 7 -3 13 -10 13 -17 0 -11 52 -75 100 -122 l21 -21 -28 -1 c-15 0
-59 -6 -98 -12 -38 -6 -218 -15 -400 -20 -181 -5 -359 -12 -395 -14 -206 -16
-512 -33 -730 -41 -714 -27 -816 -30 -1170 -40 -113 -3 -333 -10 -490 -15
-157 -5 -386 -12 -510 -16 -124 -3 -228 -8 -232 -11 -5 -2 -8 0 -8 6 0 5 4 12
10 16 29 18 182 281 233 400 9 23 5 22 212 34 81 5 138 4 150 -2 29 -15 260
-24 325 -14 30 5 61 9 68 10 6 0 12 4 12 9 0 13 28 9 37 -6 10 -17 73 -27 67
-11 -7 17 36 33 74 27 22 -3 31 -9 28 -17 -3 -9 6 -12 34 -11 21 0 36 4 33 9
-6 9 35 67 48 67 6 0 7 -6 3 -12 -4 -8 -3 -10 2 -5 9 9 10 13 13 43 1 13 9 15
44 11 23 -3 74 1 112 10 78 17 213 32 233 27 8 -2 29 -4 48 -4z m2039 -58 c-3
-3 -11 0 -18 7 -9 10 -8 11 6 5 10 -3 15 -9 12 -12z m-885 -16 c0 -2 -9 -6
-20 -9 -11 -3 -20 -1 -20 4 0 5 9 9 20 9 11 0 20 -2 20 -4z m899 -46 c11 -24
11 -24 -3 -6 -9 11 -16 24 -16 30 0 12 5 7 19 -24z m-5971 -132 c46 -93 129
-228 140 -228 4 0 15 -13 24 -28 9 -16 42 -56 72 -91 31 -34 56 -64 56 -66 0
-2 -8 -4 -17 -3 -43 0 -821 3 -1046 3 -136 0 -247 0 -247 1 0 1 24 17 54 37
126 84 265 224 338 340 16 26 30 47 31 47 1 0 3 -12 4 -27 0 -16 -2 -21 -7
-13 -6 9 -9 9 -15 0 -11 -18 16 -31 34 -17 12 10 14 9 8 -7 -6 -15 -5 -17 7
-7 7 6 63 13 127 16 63 3 164 8 224 11 61 4 130 6 154 5 42 -2 43 -1 39 24 -6
31 5 33 20 3z m9137 -115 c-2 -7 7 -26 21 -42 15 -18 20 -32 14 -36 -5 -3 -10
-1 -10 5 0 6 -5 8 -12 4 -6 -4 -8 -3 -4 4 3 6 2 13 -4 17 -5 3 -10 1 -10 -6 0
-9 -5 -8 -17 3 -10 8 -30 14 -45 13 -15 0 -30 5 -32 11 -3 9 4 11 22 8 19 -3
23 -2 13 5 -8 5 -10 14 -6 21 6 10 11 9 21 -5 8 -10 17 -15 21 -12 4 4 1 13
-5 19 -20 20 -13 27 13 15 14 -7 23 -18 20 -24z m-1568 11 c-3 -3 -12 -4 -19
-1 -8 3 -5 6 6 6 11 1 17 -2 13 -5z m43 -19 c0 -8 -7 -15 -15 -15 -26 0 -18
20 13 29 1 1 2 -6 2 -14z"/>
<path d="M11293 7313 c9 -2 23 -2 30 0 6 3 -1 5 -18 5 -16 0 -22 -2 -12 -5z"/>
<path d="M11345 7300 c3 -5 8 -10 11 -10 2 0 4 5 4 10 0 6 -5 10 -11 10 -5 0
-7 -4 -4 -10z"/>
<path d="M11488 7228 c8 -8 17 -8 34 0 22 10 21 11 -11 11 -27 1 -32 -2 -23
-11z"/>
<path d="M11566 7188 c6 -9 64 -5 64 4 0 4 -15 6 -34 5 -19 -1 -32 -5 -30 -9z"/>
<path d="M11798 7083 c7 -3 16 -2 19 1 4 3 -2 6 -13 5 -11 0 -14 -3 -6 -6z"/>
<path d="M11854 7065 c8 -8 18 -15 22 -15 3 0 1 7 -6 15 -7 8 -17 15 -22 15
-5 0 -3 -7 6 -15z"/>
<path d="M12010 6986 c0 -8 5 -18 10 -21 6 -3 10 3 10 14 0 12 -4 21 -10 21
-5 0 -10 -6 -10 -14z"/>
<path d="M12225 6840 c3 -5 8 -10 11 -10 2 0 4 5 4 10 0 6 -5 10 -11 10 -5 0
-7 -4 -4 -10z"/>
<path d="M12168 6833 c7 -3 16 -2 19 1 4 3 -2 6 -13 5 -11 0 -14 -3 -6 -6z"/>
<path d="M12465 6710 c3 -5 8 -10 11 -10 2 0 4 5 4 10 0 6 -5 10 -11 10 -5 0
-7 -4 -4 -10z"/>
<path d="M12576 6621 c-4 -7 -5 -15 -2 -18 9 -9 19 4 14 18 -4 11 -6 11 -12 0z"/>
<path d="M12602 6588 c2 -6 10 -14 16 -16 7 -2 10 2 6 12 -7 18 -28 22 -22 4z"/>
<path d="M12640 6579 c0 -5 5 -7 10 -4 6 3 10 8 10 11 0 2 -4 4 -10 4 -5 0
-10 -5 -10 -11z"/>
<path d="M13100 6160 c0 -5 5 -10 10 -10 6 0 10 5 10 10 0 6 -4 10 -10 10 -5
0 -10 -4 -10 -10z"/>
<path d="M13248 5953 c7 -3 16 -2 19 1 4 3 -2 6 -13 5 -11 0 -14 -3 -6 -6z"/>
<path d="M3446 5855 c-10 -108 -23 -153 -46 -165 -41 -22 -52 -53 -39 -106 6
-27 18 -56 26 -64 12 -13 13 -4 7 66 l-7 81 35 27 c29 21 34 31 30 53 -3 17
-1 24 6 19 17 -10 25 33 13 78 -6 22 -12 52 -14 66 -2 14 -7 -11 -11 -55z"/>
<path d="M13332 5820 c0 -14 2 -19 5 -12 2 6 2 18 0 25 -3 6 -5 1 -5 -13z"/>
<path d="M3311 5624 c0 -11 3 -14 6 -6 3 7 2 16 -1 19 -3 4 -6 -2 -5 -13z"/>
<path d="M3244 5610 c12 -66 33 -124 40 -111 8 12 -1 40 -33 111 l-11 25 4
-25z"/>
<path d="M13460 5600 c0 -5 7 -10 15 -10 8 0 15 5 15 10 0 6 -7 10 -15 10 -8
0 -15 -4 -15 -10z"/>
<path d="M13490 5560 c-8 -5 -11 -12 -8 -16 4 -3 14 1 23 10 18 17 9 21 -15 6z"/>
<path d="M3270 5472 c0 -8 37 -42 45 -42 12 0 3 24 -12 36 -20 15 -33 18 -33
6z"/>
<path d="M13520 5460 c0 -5 5 -10 11 -10 5 0 7 5 4 10 -3 6 -8 10 -11 10 -2 0
-4 -4 -4 -10z"/>
<path d="M13550 5429 c0 -5 5 -7 10 -4 6 3 10 8 10 11 0 2 -4 4 -10 4 -5 0
-10 -5 -10 -11z"/>
<path d="M3440 5400 c0 -6 7 -10 15 -10 8 0 15 2 15 4 0 2 -7 6 -15 10 -8 3
-15 1 -15 -4z"/>
<path d="M3431 5364 c0 -11 3 -14 6 -6 3 7 2 16 -1 19 -3 4 -6 -2 -5 -13z"/>
<path d="M3450 5353 c0 -12 38 -48 45 -41 3 2 -6 15 -20 28 -14 13 -25 19 -25
13z"/>
<path d="M3529 5311 c11 -7 10 -10 -5 -14 -10 -2 1 -5 26 -6 l45 -1 -29 15
c-30 16 -61 21 -37 6z"/>
<path d="M5011 5264 c-12 -15 -21 -30 -21 -35 0 -9 150 -17 156 -7 2 3 -8 20
-22 37 -34 41 -83 43 -113 5z"/>
<path d="M13610 5255 c0 -8 5 -15 10 -15 6 0 10 7 10 15 0 8 -4 15 -10 15 -5
0 -10 -7 -10 -15z"/>
<path d="M6848 5173 c7 -3 16 -2 19 1 4 3 -2 6 -13 5 -11 0 -14 -3 -6 -6z"/>
<path d="M13648 5083 c7 -3 16 -2 19 1 4 3 -2 6 -13 5 -11 0 -14 -3 -6 -6z"/>
<path d="M2241 5014 c0 -11 3 -14 6 -6 3 7 2 16 -1 19 -3 4 -6 -2 -5 -13z"/>
<path d="M13675 4930 c-4 -6 3 -10 14 -10 25 0 27 6 6 13 -8 4 -17 2 -20 -3z"/>
<path d="M2275 4700 c-3 -5 -1 -10 4 -10 6 0 11 5 11 10 0 6 -2 10 -4 10 -3 0
-8 -4 -11 -10z"/>
<path d="M2251 4671 c-8 -5 -9 -11 -3 -15 5 -3 12 1 16 9 6 17 6 18 -13 6z"/>
<path d="M13625 4550 c3 -5 8 -10 11 -10 2 0 4 5 4 10 0 6 -5 10 -11 10 -5 0
-7 -4 -4 -10z"/>
<path d="M8130 5319 c0 -11 4 -18 10 -14 5 3 7 12 3 20 -7 21 -13 19 -13 -6z"/>
<path d="M7280 5226 c0 -2 7 -7 16 -10 8 -3 12 -2 9 4 -6 10 -25 14 -25 6z"/>
<path d="M3358 4977 c-5 -10 -8 -51 -7 -90 0 -57 2 -67 10 -48 5 14 9 54 7 90
-2 42 -6 59 -10 48z"/>
<path d="M3398 4908 c-3 -40 -1 -77 4 -82 4 -6 8 26 8 72 0 45 -2 82 -4 82 -2
0 -6 -33 -8 -72z"/>
<path d="M3487 4945 c-2 -14 -1 -40 3 -58 7 -27 8 -24 9 26 1 61 -4 73 -12 32z"/>
<path d="M3617 4918 c-2 -7 -1 -22 4 -33 6 -16 8 -14 8 13 1 33 -4 41 -12 20z"/>
<path d="M4080 4675 c0 -8 4 -15 10 -15 5 0 7 7 4 15 -4 8 -8 15 -10 15 -2 0
-4 -7 -4 -15z"/>
<path d="M3737 4553 c-11 -10 -8 -71 3 -78 6 -4 10 12 10 39 0 47 -2 51 -13
39z"/>
<path d="M3900 4400 c0 -9 37 -19 88 -22 19 -1 32 -8 32 -16 0 -7 5 -10 10 -7
6 3 10 17 10 31 0 13 -4 24 -10 24 -5 0 -10 -6 -10 -12 0 -8 -3 -9 -8 -3 -9
13 -112 18 -112 5z"/>
<path d="M2641 4294 c0 -11 3 -14 6 -6 3 7 2 16 -1 19 -3 4 -6 -2 -5 -13z"/>
<path d="M2505 3400 c3 -5 8 -10 11 -10 2 0 4 5 4 10 0 6 -5 10 -11 10 -5 0
-7 -4 -4 -10z"/>
<path d="M5357 3374 c2 -7 17 -15 31 -18 15 -2 -18 -2 -73 0 -55 3 -111 7
-125 10 -22 4 -23 3 -5 -6 15 -8 10 -9 -25 -5 -27 3 -38 2 -26 -3 14 -6 5 -12
-43 -27 -34 -11 -61 -23 -61 -27 0 -3 -10 -4 -22 0 -14 3 -19 2 -14 -6 4 -7 2
-12 -5 -12 -6 0 -40 -20 -75 -45 -63 -45 -81 -54 -68 -34 5 8 1 8 -14 0 -12
-6 -24 -17 -28 -24 -5 -9 -4 -9 7 1 30 28 30 9 -1 -23 -18 -18 -37 -33 -43
-32 -5 1 -11 -6 -12 -17 -2 -10 -12 -28 -22 -40 -32 -37 -60 -81 -90 -142
-147 -294 -138 -675 24 -954 54 -93 191 -227 278 -272 85 -44 209 -78 285 -78
124 0 288 63 398 153 241 198 368 572 305 903 -9 49 -16 103 -16 121 1 20 -4
34 -14 37 -9 4 -13 13 -9 22 3 9 0 30 -8 47 -7 18 -19 46 -26 62 -15 32 -17
39 -19 56 0 5 -5 7 -11 4 -5 -3 -10 3 -10 14 0 12 -4 21 -9 21 -6 0 -21 18
-34 40 -13 22 -27 37 -30 33 -4 -3 -7 1 -7 9 0 15 -48 54 -62 50 -4 -1 -5 5
-2 13 4 8 2 15 -3 15 -5 0 -18 8 -29 18 -10 10 -28 22 -39 26 -13 5 -15 10 -7
13 17 7 15 20 -5 26 -10 2 -27 8 -38 12 -16 5 -17 5 -5 -4 13 -9 13 -11 -2
-11 -11 0 -18 7 -18 18 0 13 -12 22 -37 29 -21 6 -61 18 -90 26 -41 12 -50 12
-46 1z m136 -40 c15 -3 27 -11 27 -16 0 -6 -8 -7 -17 -3 -10 4 -28 10 -41 12
-12 3 -25 10 -28 15 -4 6 1 8 12 5 11 -4 31 -9 47 -13z m87 -44 c0 -5 -7 -10
-16 -10 -8 0 -12 5 -9 10 3 6 10 10 16 10 5 0 9 -4 9 -10z m-377 -57 c-7 -2
-19 -2 -25 0 -7 3 -2 5 12 5 14 0 19 -2 13 -5z m110 0 c-7 -2 -21 -2 -30 0
-10 3 -4 5 12 5 17 0 24 -2 18 -5z m54 -9 c-3 -3 -12 -4 -19 -1 -8 3 -5 6 6 6
11 1 17 -2 13 -5z m-1 -49 c103 -35 201 -101 267 -183 61 -76 101 -147 91
-164 -4 -7 -3 -8 5 -4 11 7 18 -3 24 -39 2 -11 9 -31 14 -45 6 -14 14 -36 18
-50 7 -23 7 -23 -9 -7 -10 9 -14 21 -11 27 3 5 2 10 -3 10 -9 0 -26 53 -25 77
0 7 -3 11 -7 8 -4 -2 -15 15 -24 38 -20 54 -112 170 -177 224 -61 51 -156 98
-230 114 -30 7 -91 9 -139 6 -47 -2 -74 -1 -60 3 14 4 62 8 108 9 64 1 101 -5
158 -24z m109 15 c3 -6 -1 -7 -9 -4 -18 7 -21 14 -7 14 6 0 13 -4 16 -10z
m162 -114 c35 -33 69 -69 75 -80 6 -12 -19 9 -56 47 -36 37 -84 79 -106 93
-22 15 -40 29 -40 31 0 12 71 -39 127 -91z m-532 -136 c36 -28 65 -54 65 -57
0 -6 -15 5 -74 54 -22 18 -41 31 -43 29 -6 -6 19 -111 31 -125 9 -11 8 -13 -4
-9 -16 5 -36 72 -44 147 -3 25 -3 39 0 30 3 -9 34 -40 69 -69z m205 -12 c17
-35 22 -52 13 -39 -20 27 -54 101 -48 101 3 0 18 -28 35 -62z m454 -14 c3 -8
2 -12 -4 -9 -6 3 -10 10 -10 16 0 14 7 11 14 -7z m-517 -26 c-3 -7 -5 -2 -5
12 0 14 2 19 5 13 2 -7 2 -19 0 -25z m-417 -29 c0 -3 38 -16 85 -29 47 -13 90
-28 95 -35 6 -7 -22 -2 -65 13 -41 14 -78 23 -81 19 -6 -6 44 -85 80 -126 15
-16 16 -22 6 -19 -14 4 -106 133 -144 202 l-18 31 21 -25 c11 -14 21 -28 21
-31z m547 -14 c37 -16 56 -34 105 -105 l31 -45 -39 35 c-21 19 -31 26 -21 14
18 -22 23 -49 7 -39 -16 10 -11 -1 7 -16 14 -12 16 -12 8 0 -5 10 -4 12 3 7 7
-4 12 -16 12 -28 0 -18 -3 -17 -35 11 -51 44 -102 57 -160 40 -26 -8 -51 -19
-57 -26 -8 -10 1 -9 32 2 23 8 59 14 79 14 25 -1 28 -3 11 -6 -14 -2 -40 -6
-58 -9 -33 -5 -95 -52 -113 -85 -14 -27 17 -14 57 23 37 35 86 48 134 35 19
-4 46 -9 60 -10 16 -1 34 -16 54 -46 41 -62 48 -164 16 -239 -25 -58 -85 -118
-127 -128 -46 -10 -50 -12 -20 -13 35 -1 62 12 107 53 19 17 29 24 23 16 -19
-21 -16 -35 4 -19 15 13 15 12 0 -18 -18 -34 -60 -70 -114 -97 -43 -22 -137
-20 -188 3 -74 33 -143 130 -161 225 -11 61 15 41 41 -32 28 -78 64 -125 120
-158 58 -34 112 -40 169 -21 46 16 116 65 116 81 0 5 -10 0 -22 -11 -65 -60
-152 -78 -226 -47 -71 29 -135 112 -148 190 -5 35 -3 42 13 46 14 4 22 17 27
47 3 22 11 41 17 41 6 0 8 -11 5 -27 -3 -16 -2 -34 3 -42 6 -10 9 -3 9 22 0
19 3 44 7 56 5 18 2 21 -21 21 -25 0 -26 2 -21 35 4 23 2 33 -5 29 -16 -10 12
38 41 70 23 26 24 27 4 17 -12 -6 -25 -16 -28 -21 -3 -6 -13 -10 -22 -10 -9 0
-22 -8 -30 -17 -13 -16 -13 -15 -2 7 6 14 25 41 43 60 17 19 21 27 10 17 -12
-10 -38 -23 -59 -28 -21 -6 -48 -21 -61 -34 -35 -35 -29 -16 14 45 86 122 224
167 349 115z m100 -57 c-3 -7 -5 -2 -5 12 0 14 2 19 5 13 2 -7 2 -19 0 -25z
m357 -38 c3 -14 -3 -7 -13 15 -11 22 -20 45 -20 50 0 15 26 -37 33 -65z m-288
-78 c53 -117 54 -275 4 -389 -11 -25 -20 -55 -20 -67 0 -14 -3 -17 -8 -9 -5 8
-16 1 -35 -22 -15 -19 -41 -42 -57 -50 -17 -9 -30 -21 -30 -27 0 -14 -77 -178
-84 -178 -3 0 13 39 34 86 22 47 40 87 40 89 0 2 -21 -4 -47 -12 -126 -39
-275 33 -341 164 -20 38 -52 137 -52 158 0 7 11 10 29 7 23 -3 30 -10 35 -35
9 -49 50 -129 85 -169 65 -74 175 -106 262 -77 75 26 125 75 171 166 40 81 43
93 43 168 0 83 -26 182 -67 255 -15 26 -15 30 -3 15 10 -11 28 -44 41 -73z
m301 16 c-3 -8 -6 -5 -6 6 -1 11 2 17 5 13 3 -3 4 -12 1 -19z m-1179 -57 c69
-47 206 -133 225 -141 18 -7 19 -9 4 -9 -16 -1 -267 155 -267 165 0 8 12 3 38
-15z m888 -96 l3 -40 -8 40 c-5 22 -14 53 -20 68 -16 42 -12 47 6 7 8 -19 17
-53 19 -75z m-662 85 c-11 -4 -52 -10 -90 -14 l-69 -5 65 13 c36 8 76 14 90
14 23 1 23 0 4 -8z m656 -247 c-7 -24 -17 -46 -23 -50 -7 -4 -8 0 -2 13 5 10
13 44 19 74 7 36 12 47 14 31 2 -13 -2 -44 -8 -68z m-660 42 c0 -2 -10 -10
-22 -16 -21 -11 -22 -11 -9 4 13 16 31 23 31 12z m-85 -120 c60 -9 115 -13
122 -11 7 3 13 1 13 -4 0 -6 -16 -10 -35 -10 -34 0 -220 27 -240 35 -23 8 38
4 140 -10z m110 -139 c-52 -74 -69 -88 -29 -23 43 67 66 98 71 94 2 -3 -17
-34 -42 -71z m857 -79 c-55 -111 -101 -171 -183 -243 -199 -170 -471 -178
-686 -18 -83 61 -70 68 30 15 178 -95 328 -95 500 -3 93 50 200 164 255 273
23 44 42 76 42 69 0 -12 -51 -116 -87 -175 l-24 -40 30 35 c17 19 45 63 63 97
18 34 34 60 36 58 6 -5 -38 -86 -80 -147 -74 -110 -180 -193 -300 -236 -88
-31 -221 -35 -303 -9 -27 9 -51 14 -53 12 -2 -2 27 -13 65 -25 136 -43 289
-26 417 46 112 63 243 218 297 354 13 33 25 56 27 50 2 -6 -19 -57 -46 -113z
m-718 34 c-13 -13 -205 -72 -218 -68 -6 2 14 11 44 20 30 9 82 27 115 40 58
23 78 26 59 8z m37 -32 c-9 -22 -10 -22 -10 -3 -1 11 2 24 6 27 12 12 14 0 4
-24z m94 -70 c-28 -28 -63 -60 -80 -72 -16 -12 2 10 40 49 39 39 74 71 80 72
5 1 -13 -21 -40 -49z m102 12 c-5 -2 -13 3 -18 10 -15 24 -10 30 9 12 10 -10
14 -20 9 -22z m-210 -3 c-3 -8 -6 -5 -6 6 -1 11 2 17 5 13 3 -3 4 -12 1 -19z"/>
<path d="M5195 2653 l-17 -28 23 22 c12 12 20 25 17 28 -3 3 -13 -7 -23 -22z"/>
<path d="M5269 2637 c-71 -48 -116 -151 -86 -199 8 -13 18 -34 22 -48 13 -44
47 -82 92 -102 58 -25 104 -16 153 31 83 80 90 222 13 285 -20 17 -46 36 -57
43 -35 20 -99 16 -137 -10z m154 -82 c23 -9 38 -11 42 -5 3 6 12 10 18 10 7 0
6 -4 -3 -11 -11 -8 -12 -12 -2 -16 16 -6 16 -24 -1 -17 -10 3 -13 -3 -9 -24 2
-17 -1 -39 -7 -50 -9 -17 -7 -23 9 -35 11 -7 17 -17 13 -20 -11 -12 -23 -8
-23 7 0 9 -11 4 -29 -15 -22 -22 -37 -28 -65 -27 -20 1 -36 5 -36 10 0 5 -5 6
-12 2 -6 -4 -8 -3 -5 3 3 5 -3 22 -14 39 -35 54 -18 133 35 154 31 13 49 12
89 -5z m-153 -164 c0 -5 -7 -12 -16 -15 -14 -5 -15 -4 -4 9 14 17 20 19 20 6z
m176 -59 c-4 -3 -12 0 -19 8 -9 10 -9 11 1 6 7 -5 12 -1 13 11 1 17 2 17 6 0
3 -10 2 -21 -1 -25z m-136 -7 c-9 -11 -15 -12 -25 -2 -20 19 -7 39 17 26 15
-8 17 -13 8 -24z m37 -9 c-3 -8 -1 -17 6 -20 7 -2 4 -5 -5 -5 -18 -1 -24 19
-11 32 11 11 15 8 10 -7z"/>
<path d="M5328 2539 c-24 -18 -28 -28 -28 -69 0 -44 3 -50 35 -70 l35 -21 35
27 c29 22 35 33 35 63 0 41 -5 51 -40 74 -31 21 -39 21 -72 -4z"/>
<path d="M4875 3239 c-4 -6 -5 -12 -2 -15 2 -3 7 2 10 11 7 17 1 20 -8 4z"/>
<path d="M8221 3573 c-27 -25 -30 -32 -24 -70 4 -30 13 -47 30 -58 22 -15 26
-14 53 7 23 18 29 31 29 64 1 33 -4 44 -29 62 l-29 22 -30 -27z"/>
<path d="M13925 3204 c-31 -5 -37 -7 -117 -44 -48 -22 -64 -35 -30 -24 14 5
15 4 2 -5 -8 -6 -22 -11 -31 -11 -16 0 -34 -26 -31 -42 1 -4 -5 -5 -13 -2 -11
5 -14 2 -9 -12 4 -11 4 -16 0 -12 -11 9 -49 -27 -52 -49 -2 -10 -8 -19 -14
-21 -5 -2 -8 -8 -4 -13 3 -5 0 -9 -5 -9 -6 0 -10 -3 -9 -7 3 -16 -15 -43 -25
-36 -6 3 -7 1 -3 -6 4 -6 2 -18 -4 -27 -22 -25 -69 -175 -85 -264 -38 -217 0
-468 96 -638 44 -76 155 -187 216 -214 74 -33 171 -31 248 7 190 92 316 350
319 650 1 119 -8 263 -18 272 -2 3 -2 12 1 21 4 9 2 13 -4 9 -8 -5 -11 8 -10
39 0 27 -5 49 -13 54 -7 4 -9 13 -6 19 4 6 0 11 -8 11 -9 0 -16 5 -16 11 0 5
5 7 10 4 17 -10 11 14 -7 33 -10 10 -20 27 -21 37 -2 11 -12 29 -22 40 -30 34
-42 63 -27 69 7 3 3 7 -11 12 -13 3 -22 12 -20 18 5 14 -38 56 -48 47 -4 -3
-5 2 -1 11 3 10 0 19 -9 22 -24 9 -31 7 -14 -4 13 -9 13 -10 0 -10 -9 0 -24
14 -33 30 -13 21 -26 30 -45 30 -15 0 -43 2 -62 4 -19 2 -48 2 -65 0z m110
-174 c3 -6 -1 -7 -9 -4 -18 7 -21 14 -7 14 6 0 13 -4 16 -10z m-187 -145 c-3
-3 -9 2 -12 12 -6 14 -5 15 5 6 7 -7 10 -15 7 -18z m-74 -90 c23 -22 30 -29
14 -16 -45 39 -47 24 -12 -79 5 -13 4 -13 -5 0 -12 16 -52 141 -50 156 0 5 3
2 6 -6 3 -8 24 -33 47 -55z m125 21 c29 -47 26 -58 -4 -14 -14 20 -25 39 -25
42 0 13 10 4 29 -28z m374 -86 c3 -11 2 -18 -3 -15 -4 3 -10 14 -13 25 -3 11
-2 18 3 15 4 -3 10 -14 13 -25z m-294 6 c9 -11 5 -15 -24 -20 -49 -10 -108
-65 -136 -129 -32 -72 -33 -230 -3 -297 29 -63 71 -110 119 -131 28 -13 34
-19 20 -20 -17 -1 -16 -2 5 -9 42 -13 -7 -12 -52 2 -158 47 -215 384 -92 545
49 64 134 95 163 59z m-265 -57 c5 -4 -8 -3 -30 2 -21 6 -41 13 -44 16 -9 9
65 -9 74 -18z m276 12 c0 -5 -13 -11 -28 -14 -16 -3 -43 -20 -60 -38 -94 -97
-95 -307 -2 -406 29 -31 39 -36 100 -47 14 -3 1 -3 -28 -2 -44 3 -59 9 -87 36
-67 65 -95 221 -60 337 17 58 45 97 89 124 32 20 76 26 76 10z m227 -3 c0 -7
3 -31 7 -53 4 -28 3 -32 -2 -15 -17 50 -22 80 -14 80 5 0 9 -6 9 -12z m88
-108 c4 -62 4 -61 -10 20 -16 96 -17 119 -4 75 5 -16 11 -59 14 -95z m-305 70
c0 -5 -4 -10 -10 -10 -5 0 -10 -4 -10 -9 0 -5 20 -12 45 -15 54 -9 67 -22 20
-22 -37 0 -80 -32 -91 -68 -4 -12 -15 -39 -25 -62 -14 -33 -16 -48 -8 -84 12
-52 30 -75 76 -97 18 -8 30 -19 27 -24 -3 -5 -11 -7 -17 -3 -7 3 -3 -2 8 -10
11 -9 26 -14 35 -11 10 4 12 3 5 -4 -6 -6 -27 -13 -48 -16 -53 -9 -99 22 -131
87 -22 44 -26 65 -26 137 0 97 19 150 66 195 28 25 84 36 84 16z m-330 -25
c14 -19 14 -19 -2 -6 -10 7 -18 18 -18 24 0 6 1 8 3 6 1 -2 9 -13 17 -24z m31
-42 c13 -16 12 -17 -3 -4 -10 7 -18 15 -18 17 0 8 8 3 21 -13z m-66 -73 c-16
-4 -39 -8 -50 -8 -16 0 -15 2 5 8 14 4 36 8 50 8 22 0 22 -1 -5 -8z m456 -17
c13 -15 12 -15 -8 -4 -24 12 -29 21 -14 21 5 0 15 -7 22 -17z m-536 -3 c3 -6
-1 -7 -9 -4 -18 7 -21 14 -7 14 6 0 13 -4 16 -10z m87 -62 c14 -10 34 -19 45
-19 15 -1 16 -2 1 -6 -14 -4 -98 42 -98 54 0 5 15 -3 52 -29z m465 -5 c-3 -10
-5 -4 -5 12 0 17 2 24 5 18 2 -7 2 -21 0 -30z m-22 -53 c-20 -22 -40 -26 -50
-10 -3 5 0 7 8 4 8 -3 20 2 27 11 7 8 17 15 23 15 5 0 2 -9 -8 -20z m-445 -41
c-30 -26 -84 -62 -70 -46 10 11 95 76 100 76 3 0 -11 -13 -30 -30z m645 -136
c-21 -98 -81 -224 -134 -285 -48 -54 -130 -98 -180 -98 -33 1 -30 3 29 23 124
41 233 188 276 372 23 99 31 88 9 -12z m-244 54 c-10 -9 -11 -8 -5 6 3 10 9
15 12 12 3 -3 0 -11 -7 -18z m-453 6 c-10 -2 -26 -2 -35 0 -10 3 -2 5 17 5 19
0 27 -2 18 -5z m120 -10 c-16 -2 -40 -2 -55 0 -16 2 -3 4 27 4 30 0 43 -2 28
-4z m487 -100 c-15 -43 -40 -103 -57 -133 -21 -39 -24 -48 -9 -30 12 14 35 50
51 80 38 71 39 57 1 -18 -35 -69 -120 -158 -175 -183 -44 -20 -122 -26 -111
-9 3 6 16 10 28 10 32 0 119 53 154 94 46 51 99 152 119 225 10 36 19 60 21
54 2 -6 -8 -47 -22 -90z m-115 83 c0 -2 -8 -10 -17 -17 -16 -13 -17 -12 -4 4
13 16 21 21 21 13z m-27 -65 c-26 -24 -45 -36 -53 -31 -9 6 -7 10 7 14 11 3
32 20 48 36 16 16 31 28 33 25 3 -2 -13 -22 -35 -44z m-62 -94 c-10 -9 -11 -8
-5 6 3 10 9 15 12 12 3 -3 0 -11 -7 -18z m-141 -51 c0 -2 -8 -10 -17 -17 -16
-13 -17 -12 -4 4 13 16 21 21 21 13z"/>
<path d="M13950 2599 c0 -5 5 -7 10 -4 6 3 10 8 10 11 0 2 -4 4 -10 4 -5 0
-10 -5 -10 -11z"/>
<path d="M13870 2471 c0 -52 4 -58 30 -41 12 8 13 13 3 30 -7 11 -13 26 -13
34 0 8 -4 18 -10 21 -6 4 -10 -13 -10 -44z"/>
<path d="M13960 2240 c13 -11 25 -20 28 -20 3 0 -3 9 -13 20 -10 11 -23 20
-28 20 -6 0 0 -9 13 -20z"/>
<path d="M2760 2556 c0 -2 11 -6 25 -8 14 -3 25 -1 25 3 0 5 -11 9 -25 9 -14
0 -25 -2 -25 -4z"/>
<path d="M2834 2545 c2 -7 -4 -15 -15 -18 -21 -6 -26 -27 -6 -27 12 0 57 35
57 44 0 2 -9 6 -21 9 -14 4 -19 2 -15 -8z"/>
<path d="M12970 2120 c8 -5 22 -10 30 -10 13 0 13 1 0 10 -8 5 -22 10 -30 10
-13 0 -13 -1 0 -10z"/>
<path d="M11268 2113 c12 -2 32 -2 45 0 12 2 2 4 -23 4 -25 0 -35 -2 -22 -4z"/>
<path d="M11363 2113 c9 -2 25 -2 35 0 9 3 1 5 -18 5 -19 0 -27 -2 -17 -5z"/>
<path d="M11793 2113 c142 -2 372 -2 510 0 139 1 23 2 -258 2 -280 0 -394 -1
-252 -2z"/>
<path d="M12598 2113 c23 -2 59 -2 80 0 20 2 1 4 -43 4 -44 0 -61 -2 -37 -4z"/>
<path d="M12818 2113 c7 -3 16 -2 19 1 4 3 -2 6 -13 5 -11 0 -14 -3 -6 -6z"/>
<path d="M12868 2113 c6 -2 18 -2 25 0 6 3 1 5 -13 5 -14 0 -19 -2 -12 -5z"/>
<path d="M10833 2103 c37 -2 97 -2 135 0 37 2 6 3 -68 3 -74 0 -105 -1 -67 -3z"/>
<path d="M3676 2111 c-4 -7 -5 -15 -2 -18 9 -9 19 4 14 18 -4 11 -6 11 -12 0z"/>
<path d="M7844 2031 c4 -6 3 -18 -4 -26 -7 -9 -8 -15 0 -20 5 -3 10 -5 11 -3
7 32 7 48 -3 54 -7 4 -8 3 -4 -5z"/>
<path d="M8253 2013 c9 -2 23 -2 30 0 6 3 -1 5 -18 5 -16 0 -22 -2 -12 -5z"/>
<path d="M7538 2005 c-3 -4 -23 -7 -44 -8 -23 -2 -39 -9 -42 -17 -2 -9 0 -11
5 -5 4 6 23 11 41 12 30 2 80 22 56 23 -6 0 -13 -2 -16 -5z"/>
<path d="M7680 2001 c0 -11 39 -26 47 -17 8 8 3 12 -24 20 -13 4 -23 3 -23 -3z"/>
<path d="M8001 1994 c0 -11 3 -14 6 -6 3 7 2 16 -1 19 -3 4 -6 -2 -5 -13z"/>
<path d="M8100 2000 c0 -5 5 -10 11 -10 5 0 7 5 4 10 -3 6 -8 10 -11 10 -2 0
-4 -4 -4 -10z"/>
<path d="M8160 2000 c0 -5 5 -10 11 -10 5 0 7 5 4 10 -3 6 -8 10 -11 10 -2 0
-4 -4 -4 -10z"/>
<path d="M8397 2003 c-14 -13 -7 -23 16 -22 21 0 21 1 2 9 -16 6 -10 9 25 12
l45 5 -41 1 c-22 1 -44 -1 -47 -5z"/>
<path d="M8507 1998 c6 -10 45 -10 60 0 7 5 -4 8 -26 7 -22 0 -37 -3 -34 -7z"/>
<path d="M7595 1990 c4 -6 11 -8 16 -5 14 9 11 15 -7 15 -8 0 -12 -5 -9 -10z"/>
<path d="M7645 1990 c-3 -5 -2 -10 4 -10 5 0 13 5 16 10 3 6 2 10 -4 10 -5 0
-13 -4 -16 -10z"/>
<path d="M7970 1985 c0 -8 2 -15 4 -15 2 0 6 7 10 15 3 8 1 15 -4 15 -6 0 -10
-7 -10 -15z"/>
<path d="M8320 1996 c0 -9 40 -13 46 -5 3 5 -6 9 -20 9 -14 0 -26 -2 -26 -4z"/>
<path d="M8733 1993 c-44 -6 -33 -33 14 -33 20 0 32 4 28 10 -4 6 8 10 27 11
27 0 30 2 13 9 -21 9 -30 9 -82 3z"/>
<path d="M8848 1993 c6 -2 18 -2 25 0 6 3 1 5 -13 5 -14 0 -19 -2 -12 -5z"/>
<path d="M7558 1983 c7 -3 16 -2 19 1 4 3 -2 6 -13 5 -11 0 -14 -3 -6 -6z"/>
<path d="M8240 1980 c0 -5 7 -10 15 -10 8 0 15 5 15 10 0 6 -7 10 -15 10 -8 0
-15 -4 -15 -10z"/>
<path d="M8450 1980 c0 -5 5 -10 10 -10 6 0 10 5 10 10 0 6 -4 10 -10 10 -5 0
-10 -4 -10 -10z"/>
<path d="M8545 1980 c-19 -8 -19 -9 2 -9 12 -1 25 4 28 9 7 12 -2 12 -30 0z"/>
<path d="M8676 1981 c-4 -7 -5 -15 -2 -18 9 -9 19 4 14 18 -4 11 -6 11 -12 0z"/>
<path d="M7926 1971 c-4 -5 1 -8 9 -7 21 3 31 16 12 16 -9 0 -18 -4 -21 -9z"/>
<path d="M8600 1971 c0 -5 13 -11 29 -13 21 -3 28 -1 24 9 -6 14 -53 18 -53 4z"/>
<path d="M8855 1950 c3 -5 10 -10 16 -10 5 0 9 5 9 10 0 6 -7 10 -16 10 -8 0
-12 -4 -9 -10z"/>
<path d="M8810 1935 c0 -8 5 -15 10 -15 6 0 10 7 10 15 0 8 -4 15 -10 15 -5 0
-10 -7 -10 -15z"/>
<path d="M8785 1930 c-3 -5 -1 -10 4 -10 6 0 11 5 11 10 0 6 -2 10 -4 10 -3 0
-8 -4 -11 -10z"/>
<path d="M7230 1909 c0 -5 5 -7 10 -4 6 3 10 8 10 11 0 2 -4 4 -10 4 -5 0 -10
-5 -10 -11z"/>
<path d="M8960 1900 c0 -6 7 -10 15 -10 8 0 15 2 15 4 0 2 -7 6 -15 10 -8 3
-15 1 -15 -4z"/>
<path d="M6320 1890 c0 -5 10 -10 23 -10 18 0 19 2 7 10 -19 13 -30 13 -30 0z"/>
<path d="M6438 1893 c7 -3 16 -2 19 1 4 3 -2 6 -13 5 -11 0 -14 -3 -6 -6z"/>
<path d="M6475 1890 c-3 -6 1 -7 9 -4 18 7 21 14 7 14 -6 0 -13 -4 -16 -10z"/>
<path d="M6538 1883 c7 -3 16 -2 19 1 4 3 -2 6 -13 5 -11 0 -14 -3 -6 -6z"/>
<path d="M9880 1830 c0 -5 7 -10 15 -10 8 0 15 5 15 10 0 6 -7 10 -15 10 -8 0
-15 -4 -15 -10z"/>
<path d="M1241 1794 c0 -11 3 -14 6 -6 3 7 2 16 -1 19 -3 4 -6 -2 -5 -13z"/>
<path d="M15870 839 c-19 -4 -29 -7 -22 -8 7 0 11 -5 8 -10 -7 -11 -79 -23
-130 -21 -23 1 -46 -6 -57 -16 -13 -12 -41 -18 -95 -20 -62 -3 -81 -8 -96 -24
-25 -26 -38 -25 -39 3 -1 21 -1 21 -8 -3 -7 -25 -24 -31 -80 -30 -13 0 -31 -6
-39 -12 -8 -7 -31 -13 -51 -14 -105 -3 -111 -4 -111 -19 0 -12 -13 -15 -55
-15 -51 0 -72 -12 -42 -23 6 -3 -7 -6 -31 -6 -26 -1 -41 -5 -37 -11 4 -6 -14
-9 -47 -7 -56 3 -142 -19 -132 -34 3 -5 -3 -9 -13 -10 -78 -4 -118 -10 -148
-25 -29 -13 -41 -14 -61 -6 -15 7 -24 8 -24 2 0 -6 -12 -11 -27 -11 l-28 -1
30 -8 c22 -6 9 -8 -48 -9 -43 0 -76 -5 -73 -10 3 -5 -11 -11 -32 -15 -20 -3
-2846 -6 -6279 -6 l-6243 0 0 -65 0 -65 -389 0 c-373 0 -427 3 -416 20 2 4
-16 5 -40 2 -28 -3 -45 -1 -45 6 0 5 -9 8 -20 5 -11 -3 -26 0 -34 6 -11 10
-17 8 -25 -6 -8 -15 -10 -15 -11 -2 0 21 -152 58 -158 39 -3 -9 -11 -5 -23 11
-16 21 -21 22 -39 11 -20 -12 -21 -12 -15 10 5 17 4 19 -4 9 -7 -12 -13 -12
-24 -3 -7 6 -31 14 -53 16 -80 9 -150 24 -194 40 -25 10 -59 21 -75 25 -17 4
-39 13 -50 19 -11 5 -44 8 -73 6 -29 -3 -52 -1 -52 4 0 16 -30 22 -49 10 -19
-12 -51 -5 -51 11 0 5 9 13 21 16 11 4 18 9 16 11 -2 3 -16 -1 -31 -7 l-26
-12 0 -294 0 -293 8000 0 8000 0 0 425 0 425 -47 -2 c-27 -2 -64 -6 -83 -9z
m-985 -249 c-3 -5 -12 -10 -18 -10 -7 0 -6 4 3 10 19 12 23 12 15 0z"/>
<path d="M1806 388 c3 -5 10 -6 15 -3 13 9 11 12 -6 12 -8 0 -12 -4 -9 -9z"/>
</g>
</svg>
